<mxfile host="app.diagrams.net" agent="Mozilla/5.0 (X11; Linux x86_64) AppleWebKit/537.36 (KHTML, like Gecko) Chrome/128.0.0.0 Safari/537.36" version="24.7.17">
  <diagram name="Page-1" id="fgH37yY7eO7qwaQR8Y1L">
    <mxGraphModel dx="1140" dy="628" grid="1" gridSize="10" guides="1" tooltips="1" connect="1" arrows="1" fold="1" page="1" pageScale="1" pageWidth="827" pageHeight="1169" math="0" shadow="0">
      <root>
        <mxCell id="0" />
        <mxCell id="1" parent="0" />
        <mxCell id="KGGsZ-ZlMWvUG5d2Pkvt-1" value="" style="shape=image;imageAspect=0;aspect=fixed;verticalLabelPosition=bottom;verticalAlign=top;image=data:image/png,iVBORw0KGgoAAAANSUhEUgAAA2cAAABgCAYAAACZpgpAAAAABHNCSVQICAgIfAhkiAAAABl0RVh0U29mdHdhcmUAZ25vbWUtc2NyZWVuc2hvdO8Dvz4AAAAtdEVYdENyZWF0aW9uIFRpbWUARnJpIDA0IE9jdCAyMDI0IDExOjA3OjM2IEFNIENTVDe6YRwAACAASURBVHic7d13eFRV+sDx7512UyZ1QsoQIBAg4opYYtkoq9hAVxALKkUEy6pr/ym6Lro2sLti2bULiGBBBVFRRAV0QUpQIQiGGiA9M6mTzNxp9/dHEqQkkIRUeD/P42NIZu6ce+fec897zrnvUXRd1xFCCCGEEEII0aEMHV0AIYQQQgghhBASnAkhhBBCCCFEp2Bqqw0Hg0F0XScQCBAMBgGon0G590xKRVHaqghCCCGEEEII0WT1cUp9jFL/f4PBsM9/baVVg7NgMIjf798TkO0dhMmjbUIIIYQQQoiuZu/BJEVR9gRoJpMJo9HYup/VGglBAoEAPp+PQCCArusSiAkhhBBCCCGOWIqioCgKRqMRk8mEydQ6Y16HFZwFg0G8Xi9+vx+Q0TEhhBBCCCHE0UVRFEwmE2az+bBH0locnPn9fjRNk5EyIYQQQgghxFHPYDBgNpuxWCwt3kaLgjNN0/D5fBKUCSGEEEIIIUSd+lE0VVVblPiw2cGZx+PB7/dLYCaEEEIIIYQQ+6l/Fk1V1WZndmzWqyUwE0IIIYQQQojG6bqO3+/H4/E0O25qcnCmaZoEZkIIIYQQQgjRBIFAAI/H06z3NCk48/l88oyZEEIIIYQQQjRDfRLFpjpkcBYIBPZkZRRCCCGEEEII0XQ+n2/P0mOHcsjgzOv1SmAmhBBCCCGEEC2g6zoej4dgMHjI1x40OGtOlCeEEEIIIYQQ4kC6ruPz+Q75uoMGZ16vt9UKJIQQQgghhBBHK5/Pd8jRs0aDM7/f36ShNyGEEEIIIYQQB9eU0bNGg7OmDLsJIYQQQgghhGiaQz0y1mBwFgwG5VkzIYQQQgghhGhFwWCQQCDQ6N8bDM4O9gYhhBBCCCGEEC1zsEEwCc6EEEIIIYQQop1IcCaEEEIIIYQQnUAwGGx0HelGnzkTQgghhBBCCNH6mhycNfZCIYQQQgghhBCHr7HBMAnOhBBCCCGEEKITaHSdMyGEEEIIIYQQra9Zz5wJIYQQQgghhGhfEpwJIYQQQgghRCcgwZkQQgghhBBCdAKdOzgLuFj03M+8+F1N6263vJjpj//K7A2+1t2uEEKILsGZOZcXH/oHUz/JRuvowojmy1nEiw89xHPvrSBfvkAhxBHE1NEFOKgqJx+9tZ3v7EbOOHMQ6WrrbDZr1nqmvFHO8XGpjD3O3DobFUII0fkF8lny8r94ZMYP7HRUE+xh5qyRj3OmsaMLJpoj+/P/8sL0teghn7Lg6zFMnnIvQ1NaqZEghBAdqHOPnEXEcdaJULpuOzO/baWuMXchH852UuK1csbg8NbZphBCiM7Pnc3s/7uWW6d9zvodhZT6bJx25UUc27nvhKIBvc65hAt7Bikr3k3WN69z54RbeC3T1dHFEkKIw9a5b0nGMC4an4Q96OHLd3eR3wqbdC7eyqdbgljPSuXKtM69+0IIIVqJlsPcybfw8Ny15Ja6MfUayuTpH/LidScRo3R04URzhfQfxaMz5vDUlWmEesrJX/clz9x1O9PXSYAmhOjaOnl0omA7qz+XHwvO/21nzobAYW7PxaczCygIqvx1XA+6y4xGIYQ4CrhY8dzfmfzBrxS7/KgDxvL02y9y07nHYI9SkdisCzJHEN/vDK6Z+g6v/z0dK24cvy1kyj2Psqi4owsnhBAt18mDM1DCbIwfbSPcVc77s4o5nD4xLXMb7/7kx9S/J9efrSKPGAjRmQXIX1fIkp8qcR1uv4w4qjm/e5KH31pFocsPSUN56KVHufJEO9GqhGVdmmImIuFYzp/0Ms9elYYacFPyyxwefGwu+VJnCCG6qE4fnIGB1MtTOb9bkB3ztrC4xT1iPpZ/uJON1QZOGd2HEyPkpixEZ6atXs+1167i1hv+x6R5rZyxVbQSjZwfZzN9xgKyyju6LI1wLuL5h2fyc6kPjCmMeuwZJpwUj7Vzp8M6fOVZLJgxnbk/5h/h2SiNhNiOYeS/Hue641TwVbH10yd5ZF5rPAghOq8uUPd0BQEnmZ9MZ/onmTilQ6PT6BK3J1NCTyaO2MC8dwqZ/mkll94c2fyNFOxmxmc1+GITufryaKTDVIjOTdtRzoYdNVTr8OtmNxDW0UUS+yuYy9Q7HuH7SiN9i+wsuj+9o0u0H42sd6fx7sZKfDrYR9zHA8NTiDzip7RrrHj5DibN2IUe8xP6wje4Mr6jy9SWjIQnnc2dD13H9xNeJdu1g8+nvcGKYY+QYe3osok20enrnq7BtehJbn9gHsXEsyVqKU+cJxlPO4MuMHIGGMycPqE36WqAle9tJ7MF3YDZn25jcbFOyvB+XGrvGrstxNFM9+kE9Nqf/T69YwsjGpbzG2t3FVNSUkBW1pbDmnbeJsqX8ObMTCr9gDWDCXeNpHfY0dAzV0XOb79TUFJC4Y4sNuZ1dHnagRJC0pBbuOUcGxCgetN7vP6FjJ4dsTp73dNFFG39me2FJZQUbueXzY6OLo6o0yVGzgBCBvRh9Fmbuee7HTz5iJG/JDTjzX4faz4spdocyd8nJBIhD5sJIcTh8/nw7QmgfXS2WTHO7+byxc7a3jzbuROZcJz1KHnWOIDfU/dt6H58/o4tTXtRQnowauLFTPt6Jjm+EpZ++Dk5V99ESkcXTLS+Tl73dBV+jw8PADq+o6Wi6AK6THCGOZyR45J4fvEufpy1mbXNKbmu464KYh3ch/HHtf2t2bVhAXOXbMbp/uN3ZnsGo0ZlYFfBuWkJ3y9Zwfpt+ZS6wRJtJ2VgBpcMH0JKe0zBcGezaM7XZDl9YDBjO/ESxpwdR853c/l86Xp2VKn0PiGDoSNHMNAGuHNYsWgJa7Ky2eyE3icMZczoIdjbePS70eM4OgO7USM/cynL1/3O5m055FdBrD2FY049h2FnDsTWSUbmtYJMFixcTj69OWP4CNI7YGqRa8Nu5i4px+muv30ZMdu7MWpUInY1gHNTEd8vKWb9Nnfd+RhKysBELhme2KTzUStwsujzfNZkV7Bzt4bDHQSjmYgoE/beURx/cgJDz4vHHnqQjQRqyPxkB0tzfHt+VbPOtedZGceqrUx9JpcDv9a996XJh6RzcGYy95Pl7Cz/Y5+x9uLsK0aRHg9acRZLv/mezI055Jd7wRKBvf/JDB0xgvTkrrazHcHFsoXf1T5HYbRx1sjzSWjCdEYtZwlz5q/F6QVCbfQfMooRKQ6WzP+M73/ZTKnJzsBThzJiZDp2Y+01vui75WRtzMERiCPt7LGMuzCFDp9N1+GDzRo5333M178U4ArW/86M7eRLGHNuCmrASdbS78ncuJPtOTsoJQJ7jzTSzxzK2en2Bq71pjASkTGSIT1mMj1Hp3ztVyzJvYmJya22U03ndpKTX9Wy90bEkRLfhmeQ1D2twEXW/PdYtNkFmLH2OIURl52M+vsi5i5cQVa+Rmzq8Zx50SiG9rcCLrKXfsWKzPWs3+nC2iudS8aP7ZA2wT70jq8qjoS2XmvrOsEZCnFn9+Xy/rt4ebOfk64/nlFNWafM7+LraZtZVKly1bW9Sba0dTnzmff0g0z5XwX+4B+/VUIWUBb5KL2WvcgbizfjrHJRo/kIBEExmbGEzmbOhyOYPO0pRqS0bQmdX03jvie+otyvAwqmmEX8OCjA2tVbKa9y4w0oWBbO44NFm3l2ci8WPfIcn290UF3jQQuA5fMFLMp+gQ+eHIqtzUrZ+HEssEwmZdV/mbEom1K3B4/mxRcAo9lCyLtv88qAc/nbpAeZ+Oe2K12T5M7l/mseZeEuF15U3vxgBU/MfooR7VoZ1zDv6bVM+V8Af7C+ClZQQnZTFnkSvZZt4I3F1TirfNRowbrz0YAldCdzPuzO5GnpBz0ftc1bufumjXy300e1J4DXG8Sv136G0ahgVotY8P4OXuoZzRW3nsCdIyMbbrT+soV/PryV7Jo/bhO65t9z0yjP3M3rvykNpDxXUMw7Keh+IU8N6VpjItmzH2XytCy0wF63RoPKsupIbjMv4IUPfySnpJIajxefXweDAbP6Ke+/N5fRT7zK5LM7+Pzu7LRf+Gl1We05FHY6F/wlpgkp8zWWv34/U94vqj2PDSZCPvuWBaFbWbGpiMoajYBi5qt57/P5L8/z1F8yefzR91lX5MLt8eLXTYR88TXrymfx6uiUNt7BTs61hBcnPcxnzr1HNRRMtmyCT51CzvQZfPZrAdUeDU3zEsCA2RLCrLdeJ23IaO6652aGpLSg5RWewQUZdqbn5KNX/MzS1S4mJrdvqOxa/SJ/v/dd1le2cDzHEE7KiCm8/ciQNrnHSt3TCrZ9wGMPPcPqygCgYLTE8s03x+L8ZQ27S124fTpGdQFzP/iBu166FXXWZKZ9twNXdQ1ubxCD5XMWrijg5XfuJSO6o3emIx0Bbb020IWCM1Ai4hg/2sb0h53keaz8dXTioXsns7KYUQb0TWbcee2RPj+Svsf0IXbtOvJcGrhduDRAqeKdB27FXFaEw+VDN6rYeqTQP85C/tYs8ovKKSubxYOPDOT4GWPbdBpGVK9+9I5Zwrp8J06XBuWr+DJfx+3xQ7SdtG4aOdsK2LLkZW7dpFJRUESVV0eNTyPFkkd2bi5r50xjxtih3HNcW5Wy8eP43uQ7sVSX4HT50FUr9l69ifDuICenlMryUkpKPmRKzlayH32ZR4entLAH9vBlffgmH/26a08a+NKyWbz16c2MuDmlHUthpu8xYcSurSTPFQB3sO44+njngVWYy9w4XDq60YCtRxj94yB/q4v8Ih9lZTt48JFojp/Rt5HzMcCamb8x79caqgOA0UxaRjfSog3g91PlrCF7o4v8Ai8lxW5e/6eL3PI/M21CzIHfSXwkx3RT2JLj/yOznP5HwyGg1Ad9+zMSaYsgrXvXe47UljqA5Kgt7HBWomk+XO7aPV/52p1sCVRQXFaNXwc1PoX+PePw5mWRXVBFedkSXv/nkwz8/DlGHHn3pNaT/ysbHbUnjdrnTxxna8qzZha6pw0gMayEHU4nLjdQuZjP0XD7dKxJaSSTQ3ZBOStn3MnY+TUU5JajBVVsqSlEO7PJya1i/ovvcM3Ix8g42Gjxkc6SRL+0GCxr8qj0gq/KhRYAKubzxJ2L0BylVGoBCLWRktoHCjaT46yivNRByccvsGVjNpNfeYGxA5pZgyuhDDyhH+qcfDS9gt/Wb4PLBrXJLjamaOVCvl6/BU/w0K9tmMLuhUvY8tAQbG3QaJG6pxXYUhmQbCXztwJc5RoaZfy4MBe/x0PAYiOlTwSOzTnkly/kmRvXoBTnU1LtB6udtO4aOZuL2frDG7w0/woyJqR09N50oK7f1msLXSo4QzHWptV/xcnn3+zkp3/14NKDjkL4WPF5Lr9rBtKv6stp7ZI+P5wTb36Fj6524wvqrHlmKLd86ATdT3luLhispF34d+64eRSn94pANSn4ihby8LX/YEFuFTsXz+CzTWO5c0DbldB03ERemXsJ7mWPctYd83HpPtwelZQLH2baQxfTW93Oa9eO4dUNZeTuBIw20v/+NM/ccAq2ii+4a/hklpRn8s3SHO45LqWNStn4cawsyofQFIbeNYlbLjuNXlEWDLqXqt2/8tWMZ3lxfjYl21Yw66H7Sez5LncN6phL1l1etu/6XP4qyiraO6m1iRNvPoOPrg7gC8KaZ77hlg99oOuU59aAwUDahf244+Y+nN7LhGoCX1E+D1/7Mwty/excvI3PNvVt9HysqfTVBmYACUnc958TOVMFdJ2AP4hW5mLp+1k8+7qT/LwK5j/zC+kZZ3F9//1aHPZkHpxl43bvH1MsqhasZNijTjQgZfTpfHxrTINlMJpNdOve9ZI8xJw9iRmf3IQWCOBZ/CDn/ONrNEBz5JOvg23QKCbeOpGr0u2oFhO6exsfTRrL1KUuyjd9yrsL/48R19jbpaxacQ6bCw6coqVtd/wRTFfls35dFgd0Aofa6J1qx9reA5s7t7PDW/ujkpJG7ybF7wp9LnuK2YNdrH3hcia+mwM+D26jnYx7n+LZMYOwFs/llkunsKIyn5wqIHwgY598lv8bnIT/x4e49K4F5G/7hm82PEbGKW22d7UCLvI376idgrk3XyE5e1af0HBkZ5Jl2b8etBCRnEJKW80LMh/DmOc/YmiNj4Avm7fHj+XVbCDooiTPhZqUwc133cmoc/piU83gq8S5cQnvvDiN2ZlOcn+Zx8P32uk9+8FmjyzY+/YhzriMvIBOfs4ONAa1a8MteegNTFiukJlf1aJlDFTVzsCrL2VgG/U5Sd3TCiJP54435nNNyRdMGvog32s6mtuDdcAoHn/2Hwzp6eeXp65i4pwcHDm7QFexn3s/Lzx2BcdYc5l+/RVMyyxixTdrcE5IacNZSAAazpwc8iv2ryg0fi/W9vzsys8ic13lAdeKxdabtDYbfe76bb220LWCM8BkT2bsXzcwb2bBodPqF+cxfX4NWmwi114VTUi7tN8UQmzJ9K670gqi9zrEupX0m17n1TvOILlbDOHmugJ1v4bx577Egpn56K6NrFnnhAFteKmqMST3joGtkXtGEtUB1/H0cxMZnByJmWSGnRrHqxtqU3zZL3qElycN5xhbKMbA+ZzR/zGW/KyxZcsOaLMxvoMcRzWFUU/P4vERfekWHY657gam9+hBz7QB9A27jptnZVOVs4RXp77HyPevJ6UDZrwNvPQKMmZOZUX9GizxQxg3PKWdS6EQYgvf6zjudRHoBtJvOp1X70gkuZtlr/OxD+PP/Y0FMzV0Vzlr1mnQYO+1gYzxAxj121bWVIcy5MZjuKhXGOF7X2fJ4SQkh5PoXcaEt1xU55UwY66TcZPj970BmMzE9zKzd19LRYJpzzQ0NSac/v1asIRGJ2YM70bPPt0A8GyI+GPKnQ62wZN54+VrSU+MIyas7tzXk5g4ZjAvLv0KV8DJr2s2oF3T0mdzms61dCpjH5jLDteBwwBBjxNHXXCu/fwGN4+bc+DsBIORpKGPMv2ZEbRPc66uPBUuyuqeb7d2szX5GTBzZBIpkVAc88eRtV/+CK/cPozUmBCUXheQ0edZVvymgW4l456XePSKQcSHm9DDzuM40wLyvbvI3u6CU9pwOl0gm9k338xzq5wE9h9V1v1UltQ1ugJ5fPnYBH5S92/pKxii0pj4n1nc2RaNGkUl2t67tsHsdxO390ckDeWht/7NmBPiiYmon9Gi06tHCr2OTSXulr/x4moXxaveYOpbw/j03vRmnecmWwwxCuQB/gonVdCuwZmaehH3vXA6Nb4ALRk8MygWQmO67VuXtiKpe1qBIZS4Hn2Ii0zCWn8ArencOm0qV6UnYjXrxA4ZiHVODi4dSB3FU8/fxDm9o1GVnpx7anemZW6nYscmdgVokxHSWhqZL1/D7W9nU31ARRFEqyiq+1ln2wf3MmGh5YA07opq45S7pvPWuJQ2KF/Xb+u1hS4XnGG0MPjangyc8zsr399O5sQTSG+khshZsIXFBTr2Man8tTOkzx9wLQ/cfT79E0L2ffbBGEFqagoq+Wi6j7zCMmjjfpR9qQwadR1DkiOpbZ+rxMTHAHlgTOGCCZfXBmYAxni6xdWWvtpVm7ChvfsqbEPv44ErjsO+X3eYYg4lOvFYLvrH44xbdSVvb/ZQ+L/XeWfVOB7LaP8eldDj/sYr79n5ZEEm+SY76cPHckm/TtSzMyCFB+5Opn+Ccb/z0UxqaggqGpoeJK/QQ8PfsoJ1UD+mzuhJTdBAhC30wMaEwYDVFsG5Y+ykzdrMei3IttWlOIine5vtWBcXms6Nj9zEX3rvtx6jYqZbahoJxq9wBXSqCkvapdFZlLWUNRu31zYwDkKvcbB7Z8OpmHO/X01OYAT2drxx6n7PnqAlzBLWhOfNGmFM4/LrhtcGZgDmeLrVT5G0nc/EMbWBGYASm0CkCmh+ql010JZpQfzbWbHkV7YVH+K5Jt1HZeEuKhv6m8HB6o1V0K49zlYybnmICaf32G+9OQVjSCTxfc/j7sduZPmlL5DpLmf1jJksuSGdYc0ZPbOEYTQCfsAfoN2XsDeFE2cPb+9PPXyh6dz4cGN1T//2r3s2dK26x3rmtVyTnojVDKAQFR9PmBFcAZWBl97I0D3H1Uw3W+30fs1Vdcj9OzxVbPlpORu3Vx0y8YdWls+usgb+oOymekU22rj2nTpoGzrpkG29sauu5J3NHgr/9wbTV43j0Q5o67WFrhecoRB6XCrjB29m0vIdzFz6J9KHNpCCS3My971SykxWbhuf1Ia9Ek2Xdv7lDI4PabCREB5urvu9hr+mnW8lxu6cmpG6z8hiiLHugIUN5IxT9k4/baT+T7qud0CWH5WThpxH70bnKRgJTT6bv41K572pmWjVW/lm8Toeyzi1XUsJgCWG1D9fxk3HDsOHmbCoaMI70eK3aeenMDje2Mj5+Meolb/mIH2/FguJPffKsqNpZG9wkr3ZRc5uFw6nj9JyH57yCgrrNlPt8FAWgO6d4JrsjNRBlzLqhP0aR3WUMOueAFj31rRL+ujk4bdz14Yolu92HThFqyqHtevya39vSyOjgRF/NczOwMtGM6id+8fUEDMWwAN4PdUt31DMIAYPCt/rOjESVnfuqsdmcHrCXrdRg5GQ+sEGvY1rR8uZTHjgRiq+WI/jgC/Gi3NTJtlOABX7oJNJidj/NSrW1HO46ax2zkagpnL2ecc2vhC4EkJs+nWMPvNNMhe70PIW89VqjWEXNKPR5fOi1VdbZrVDMmc6N2eS3dJpjWF20galtXsmOnXQpYw6sbG6J6L9656Lb+eurK5S96j8KeN0uu91XitGY227yhjHaacfR+hexzXMXHfv1fUWja42XTTn3HgfEwLfk1114Nno3b2ezJ21q8RZU9M5PunArHmq7XguvPZk2jyf3r6fyklDzj9kW++mUenMnpqJVr2FRYvX8WhHtPXaQBcMzgBLBJeN684LS3P5clYODwztd8CQtevHbXy4KUj4ab0Zf4Kp5b2mrUalz7FpjU6tVPaeV9DWN/X9mZJITtr3VNhTnNhkenSqDkCFqLhuB0/sooTQ76zT6f1UJr8H/Oz6bRNOTm3Xscg9RTGHEx3XqQ7gHn2OjT3I+bj39MdDbSlI/uqdfPzJbhatrCKv1I+7PnOjX8cf0AkGg3jrppjpAf3AaVhij4jUAfRutOG6V8bKdqon1B7n87fHTmaMt4EpWqufYOgNc8gLgDpwHP/+z6UHNIQNBguh0XFtNkWrMYqtG92MUBmAqsIiXLRwHMvWnfj9Gsn1u6IkxhO3X8PP0F77qURwwpX38ezQGg5co93BvBuH8tAKDYzdueD+N7j3gJwYBoxqBHFx7dwMUOJIsB3iMy3JnHvmn1AXr0ILFPHb+h1wwTFN/gitMJeSuvrGEteN9s7L4vzmH4x54Evy3C2c1miwEPeXB5nx3yvadY02qXsOh0JcUvcD2iYKgCmG+KR9D6zSbvWhifiMCTyYdjnuwIFn445XRzH8lU2ASuqlT/DGxAMngBpMYUTZbO3cju5abb3W1jWDMxTizuvH5am7eWXpdj7Z1I/b90lYUMOXs3LZ7jNz8ZjepHaKUU6FcGuHr3zTMMWEqbEK2WLC1PGR7T4Uw6GHXEz2ZOJMQACqi/IpbNM53V2RgXBrK3QnOot57ZH1zFxSRWGZl4rq4J50uKpNJaVXGLY4M1ajh7VLK2vXnBIHFRZp7lwVszGU6ITuBz5sD7DDuqd+UEJj6N6jJ1HtWbaD6dWXnipsq4GaLVv5LQCntaQOsIQ32kCwWMIIO5wyHiZzRBxJB4yIAajE1A9/KGYiEnrSs0d7luxgjBgPWfUYSUi21zUGA+QVNTxlrTF5v2+lXAdQ6d27JyEtKeZhKNv6K+u37qT6MGKYvDUbcAauaNdnaKTuOTyh5kaOnhJKWPsOO+378WoU3ewNHx13VH3BFNSoJHr26Nl+BTuEo7mt16muw+ZQIuIYf2UMb0wp5933Cvnb1MQ/5sJu3sF733nx9+rFuIvCOs1OKu3XVdJ8jRWtMxY50IQn3bxB/HVlt+hNaQwcbZTD77lzO3np9pVMW1KDs1pHV80MPK8HQ89KJD09mj42ExaLAZNJwViRw01nr+cHCc4OSZFztXXEn8LJKbBkI+gFa1izG05LacF2DnKhKEpDa++Jg/PWptQ/hIDPs+dno7E5d3EnazOza6fdGeMYdFK/dv+Oeoy8n3/lfsjyHFfLNhBqJ/3yazi2nesCqXsOT+NVRSvcb49GR3Fbr7PELc2nGEm9qg9D/ruWb+dt5ev/S+QSG0CQzA92sKpKJ/2WvgyOkiviSFNa5IBDpJNwbd7E9rrp1WrP3nTBTOudXv6nWfzn22ocHlBTE7l3yvFcdUIYkRFmwsONqMa9DnqopW2ypQY0sn+twBsXw8BeneiBPtHxjAMYnJHCcxtzoHod336fw23XpXR0qUSgBIcTDpU+b9OmbXXPGal075nc9O0XL2PhT3XpT2JO5IyT23/qjJqUwbh7jmWk1sKniQxmwqJj9nlGSYijzdHc1uvSMaape0+uuygMf0EBs+bXVcblucz8xIUnKp7Ro21SuR1xNH5evhLnQV/j5Nv53+Osm9ZyyuAzOuSB8HqaM598Z3uvb9bWgmxY4aDQAxjNDLsrnZvOiyWleyixkaZ9A7M2lPXfH7lqwkrGjl7JnJ3NfHPARX6us0m9+KIrUjn9kmG108L0Cn76ZAHZ8l13PP8uVi7POfhrXCtYsGhH7eOuahpnD05s8ubzF81haW3lj+2sSzk/tsUlbTlFJcKWQJI9qWX/JcYRFXIEzM0SosW6XluvNXXp4AyjylnjezLQ5OfHWdvJ1CD/i618uUvHfkEqI3t17d0TDdEp/+FNZq5rPNhxfvc8L35dWDutJX4Yl/01oWOmHmk5LHjoas4bejEXD72Ia6d8Q/4R0zjU0b3B2sZTUMcQIO9jLgAAExpJREFUEUJ0Qym+6hXUNHvfLVbznuxQVS5fA6+o4ZdlDrbvrCYnu4KcBnOFN8z500vccNEQLh4xlMEXXcvUr3JalFXtqKda/5h0EhrRztm8Di30tLGMPVEFdNw/z+Lt71o4zazLUVHD/vg5ojN9MbqLlbOn/7H+4wFcZP73CT7aVnvNW0+7ksvTmjjJx72CN978kdIgYEzhsmsuxCbNgCNTJ697ugo1zLLnOKqhnSJBQ50u1NZrA1282lIIPSGVqzIMuDft4v3vCvnkPQdOk5XLr0kmTjqejkh62Vpef2AK3xTs/xeNnG+mcsd9s1hfEQCjlYwb7mJkUsecCPmfT+XB6d+xfvNWtm7+ma/emMzzCw/eD9R1GDgmvXadFvQAP765gSUFDU/h0XLzeenJHWzxN+8TQlIj6F13ryheUUjmfu1q1+otvLem7on7qCj+1NSZT1omb/7rBT5fnc3WrZv5ffVXvD7pVl5aLeFZs6Wdx7ATbKjRaYwYdlq7J144pJBjufaWS2rXOKrZxvsvvEmmu6ML1R4iOGXYUFKsKvZTh3Fe344uz9503Bun88CjH5Oz/3cRcLLilTu4/fVVFPuA0IGMv3s8fZrU8tbImvkcs39zowO2IbdwQ4b1iGmsif109rqni+h+xiWckaRi7XU2I8+M6+ji7KOrtPXagvGRRx55ZO9f6LqOz9dQL3UnZbKQYnTyyYIyNm4oZUO2m5qT+vHiPUm0d4bgetrOFcz/4lt+WLmKn5Yt5efdHsCEOSICb24mWdurCOvVmzijk6yFHzJv6SpWLl/K0k2ltbsUEYmpbDNZm/IJdEvBHtHKO6Lls+Kzj/ly2VK+W5uHXzFjjbZQ4wqjd2ocVesW8MHHC/hhS1VttqRQcCl20uxBsr+Zy9wFC8kqhoAaTpzBjS8mlR7RbXuwdy5+mffX1q9VFKC68HeWL19HbpWbmuIdrP3uY2a/9iLPvfkFa3dV4NVVUi55ilcePJ9eYR1zwWbN+if/+V9pXSZ6Hb+nHH/fkVz3l6R2LYe2s5D5X+Tzw8piflpWxM+7a4Moc4QBb66TrO0+wnpFEGfUyFq4nXlLi1m5vJClm2rrAVOEAVNZBVmbagh0i8QeoQAK1p4qhV/v4hcnuIsr+HFZCdsK3TiLayjIreCXn/KY9+5Gpjy9na9+8VBVX634NKqrNHI2lfLLxhrUHtEkNJDyTok2UfBtDsvzdYLllWRuqsHv9VG6s4wf5v/OE0/vZE1+gAAGBl5/Ev+60IqlKS0xx2KmTfmE7PpYTPfjqSwgx3gS4y/s2349sK5slnz2OYuWr2LlqqV8u64IAGOolRDXDrI25eCOSqVHdID81fP5+MsfWLXyJ5as2kJVEAKqFWugkA0bN1Oq2ElN7IC8gWo8xw8ZwdVjr+Kik7oToXa2/j4j4SmphPz2Fd9sqUArziLHeCojzuzR+PdcnMmCeYv4fulXrNrhBpOVbuFeyo120hKDZH/1PnMXfEOWEwwhkUToVXjjUumh5rLik9l8vPBn8rwBzJGxWGo8hPXuTVy7d+sbiOjzZ4ZdPoYxl51Fv7iwjs26GyxixYzp/FBU/28Pjq2r+F/mDkrdVThyf2XJ/LnMmPYsL3+6gh1OD0GjjSH/eI2nr+iHtQm3F23dK9w5aTbry/0Qnc6d06YyIiWkq/dAtw2pe1qBRs7S+cxbtIQlS9dTFAxgjopDqfYR06cHoUUrmP/hPL5YuRO3ohAaHYbXZaJ3vwS8GxYw6+OFfP97GRjDsYaDFrSR1r3B1KttyhibxpkXX8mY0SM4rU80HT2btiu29Q6HyWTCaDyw3Iq+30qZwWCQ6urDWLCzA+gVeUw67wfe3KpgUEycP20Yc8ZbOyjbST4f3XAxDy6rwB/Q8bnKqPAEAAU10kaEBRRTCAPvmMeHJ33AOde9S4FXJ+ipoLRu6pYpPJroUBOK0Uz08BdZ9u9hrTqP1rXgNv5y71eUu6twVnjQFTPWmGjCrQO5e/adlNx+MzO2lOCs9tcGZzGRhHYfxWuvpvLq1U+wvKiEKg1QI4iLCif63Cksfv3KNl1bYtmkfgx/vQhQSRnUn6oNWTgJISI6CqtqIOh1U1NdjcvtQzfaSB/3OE/9cyQnJXXUeQBFs6/m9NsW/pE+3mhn1PQfeHtkfDuWooaPbljMg8sC+APgc3mp8NRe8mqkhQiLgmIyMvCOv/DhSTmcc90OCrwQ9HgpddW+zhRuJjrUgGI0ED38JJb9u2ft+agHKFmxmbtvW8+CbUEwGrBGmAkPMWAyQsAfwFPjp8oVJGAwYI+H/IIgGBTCI8yEmBUUg4Fe12aw5KGGjkmQgu/XM/H6TaxwgjHEREyUGdWo43X7KC8P4NMNpFw8iNde6EdGQhMrZs9KHhk8nH9n7ztSZjzxQZZ/fx/HtlP9nv3KSC59KQuPX0f3VuGsrC2PMTSKmHAzitFE1FlT+OK5SJ6/4A7mO/zofjflFdX4dcBiJTYyBIPBiNpjHG9/+zAZXe/e1A78VG2cw51X3cbHO0GNO5YrHpvJtHFpDeQB01jx8NlMnFOMu6qU8poAmMKJjbGi9hzH9Ocieebal1lT6KDKC0pIFLbIUKKHPsv7Q75g9ANfk1tSgScI5ggb0WGhnHzPPD66Oa0D9rsT8a/j2bMH8/h6wGhn4HGweV0+ftVKVJQV1aTjc3twV7uo9gbAmsYV/3yOx8ZlkBx96EQ/2s6Puf/6ScxZ48RjsDHkwfeZfvvpxMpctwZJ3dMKct9j/PDHWF5eTWVpFZoOamQckWHRnPPw+1y8ajST5udRUu4moJgIj4nBau3H32dOwfvPsbyW5cDp8oExlKiYSMLiRvDasucZ0t6L8nUyXbGtdzhCQkIwmw+s446ITiUlMpFrrojBEtAJJHfnuovCO/BLiiQxIRZDdSUOh6MuMAPQ0SodOBwOKoPhJNljscQmkmx243A49gRmAP7q8trXaQrxSbGtvoCmMT6e2GAljgpP7aiO7sNVWkl1aBJxUXYS41U0T90ctICb8rJylLgEbLbu2MPdeOvbtFoVjgofYd0S23FKgcLA699hzrQ7GHFCLHp5EQX5BRQ5yqkyduPkCyfy2IxPmP7QpR1+scYNf5SpN11AWrwVa9JALrj7Se4/r72XRzSTmGDCUK3hcGh7AjMArdKLw6FRGTSQZFexxIaQbPbhcGh7AjMAf3Xt7yq1IPFJYX+cj4qRbqf25dk5g/n3bXbSU4z4yjWKCt3k5bkpLPLit4bxl8v689SMc/libgaPjYtnYG8LiteLs0yjyquQkNjY2WMg8YwBvDLzJG6+MJIExY+jyE1evoeSSp3IP8Uz8fEMPngulVPim9EyUE/gxicnccXJKVhDoX4Rq4CfBhbzbTux9iTCg7X1RH3jCCDgrqi9/qsNxCYkEhkaS4LNQGWZA0d5XeMIwOui1OHAUeXHnJB4wGLIop6JiLTLeHjKRAZaQXNmM3/K37l7ZhYHPoFmITIxEaWypDYwA/BXU1pajZqQSFysnaRQD15v7Z90TwWOKh+xibHEJnQnVvfgqZvd66tyUqmF0y2+IzJSdGKmflz1/Ez++8AVnJYM1cWFFOQX4SirwG87liHjJvPWxx/yxPgmBmbbFvCv2/7JR7848egqKSMf5rHrT5bA7CCk7mkFYd2IC/NR6awNzAC0SgeVvjC6dYslMTkWg+aufR5K91NdWkK1OQl7VBRJiSqau67NF3BTUVaOYkvmUGuzH126TluvLRwRI2cAvrxcHr8zm+KLT+aFa6M7MEujjrtkF3mlbrwNrMYOYDCHEJ3Yi0S1irzdRVQ0ki7OYLIQFpdMz9jWDX10j4Ndux1U+/YunwFjSDT2HjYCRbsoqtII1J8ZigFLRDw9klTKd+VS5g6w550GE2G2HvTqFtqmc/v/6E0JYdTsIl4/p5QSRxmVxQXkOqogNA5bfCwx0VFEx8Z2kkxXAaodhRSVufApKtbYBBJjQw++4n2r03GXVJNXGsDbSEIOg9lAdKKVRNVH3m43FY08emUwKYTFhdMzdr890IO4Sj04K/yUF1XjcPrRMBBhCyW+m5lwq4WoaAsRliAVJR7KqgNoXp2ADgajgYj4cLpHN353130+nCUa5ZUBXCUu8l0QERdGQjcLMbEhxEUam33u6Vo5RYVOKnZ+zJ2jp7KiCqyXvs2mGaNor9U3AlWF7Cwsx+NrpJ4wWgiN7U7POIXS3bmUVHsJNhQ8GkyoEfH07B6NLCbQON1dwoaPH+K6e+eQ7TER3i2VM8fdz5R7ryBtr6kJWlkuu4sq8e79tShG1MgEesYbce7Op9yzbx0YHteD5PBqcnP3rVcNphCik3qRGNEZ6qMOtPfIWcgFvLL+A0apDkrKKijLyyWvQkONstM9KRprRDQ2WzShh2xtaeR88zIPPfEm328ooMqrYr/wQd58/nr+nHzkNdZak9Q9rSBQTdHuPMpq/OzTkjKFYevegwgtl9zi6n3qEWNIDPYecQRLdlFYsV8bKzyeHj1iOVheraNB12zrtVxjI2dHTHBGMICzwIM/MoyEiKP87D4C7XvBFvP28Lo/BPz4/AEwmDCZjLLQYwfTA0H8fp0gCkaTgqmVU+rr/iDeAK2z7UA+Cx64gpvf3IALGyNfW8PMq+IkgcARLFBdxG/zn+euh18js1hBjUqg93kPMOutiaR17Xt857Z/cJb1MeMTav+k+314A0EMRgvmZjwYl//FXVz1j/lk55XiwcrAK6fw5OTL+XOPKMxyEQvRJR1tbb3GgrMjp3PJYMTWPbyjSyHam9GE2XjknMZdnWI0YG7DRq5iMqAe9tet4Vy3iNmvv8x/FvyOKwDWjNu48yKbBGZHOGN4An8aeR/TU/rzn6dfYvrSHHJ2OPC043RWsS/FZG7RNe1z5pKzuxQ9MZ0xt9/P3aPOoE+8VQIzIY5ER1lb7+jZUyGEQCNz2njueOdXCkpqk95YB4xh6rPXc7yMuB8VjOFx9Dr1au777xBGbc7Bax8ko2ZdkH3EU8zvcQtBe1962hOJj1Slc0UIcUSQ4EwIcRTRKNq4jt9yCmozPY2exEN3X84p/Y7CZyaOZmYrcclWYhJ6opvMHZtmXrSIOSaVEwb3ApOZVp49LYQQHUqCMyHEUSScwZNe4+UTtqKmncbpf+qFPSFSpkIdpYwNzPUXXYUi358Q4oh05CQEEUcYjax37uHhj7Jwur2U5mazs8QPKESlHEtyjAVrbH+G3/cCd/y5NVeBE0e8oI9ql4YhNJxQicqEaBuBHD6e/ADTV+fj0irI27KdYg+gWLEP6EWCasXaZwh3PvFPLkjq6MIKITrG0d3WO/ITgogjjIPVi75g2aoy/EGdP3oQdCp2/kbFTgWj6Xf8Gf/HHX8e0IHlFF2OwUx4pPS4C9GmarJY/Mm3/FTiJaDr7OkG1l3kb/qNAowYtzg4bqIEZ0IcvaSt1xAJzkQnFc+519/PLcmbcNR4Yf81uoxgiUnjnEt6d0jphBBCHETYaYy77zYi1xdQ1dDaiUYLET1PZ9ygdi+ZEKLTkLZeQ2Rao+i0Ap5Kyqs8+IM67J/qWgHFGEJETBShkmlNCCE6GR2tqoxKt49gQ2sdKwoGSzgx0eGSkEWIo9jR3NY78hehFkIIIYQQQoguoLHgzNABZRFCCCGEEEIIsR8JzoQQQgghhBCiE5DgTAghhBBCCCE6AQnOhBBCCCGEEKITOCA4UxRJmySEEEIIIYQQbaWxmEuCMyGEEEIIIYRoR00OzgAMBpntKIQQQgghhBBtobF4S4IzIYQQQgghhGgniqI0b+TMaDwCl+EWQgghhBBCiA52sIEwCc6EEEIIIYQQop0cLNZqNDiTqY1CCCGEEEII0bpMJlOjf2s0AjvYm4QQQgghhBBCNI/RaGz+yBmA2WxukwIJIYQQQgghxNHoUDFWo8GZwWCQAE0IIYQQQgghWoHBYDjk7MSDPlhmsVhkUWohhBBCCCGEOExNia0OGpwZDAYsFkurFkoIIYQQQgghjiYmk6lJOT0OmZLRbDZLan0hhBBCCCGEaAGDwYCqqk2akXjI4ExRFEJCQiS1vhBCCCGEEEI0k6qqTY6lmvSq5kR7QgghhBBCCCFqA7PmzEJs8nCYyWSSAE0IIYQQQgghmkBVVcxmc7Pip2bNVTSZTDLFUQghhBBCCCEOoiWBGYCi67re3A8LBAJomkYgEGjuW4UQQgghhBDiiFSf7d5kMrVoxmGLgjOAYDCIz+fD6/W25O1CCCGEEEIIccQwm8171jJr6aNgLQ7OAHRdJxgM4vV68fv9Ld2MEEIIIYQQQnRJRqMRs9nc4tGyvR1WcFavPkjz+/34/X6CweDhblIIIYQQQgghOiVFUfYsLG0wGA5rtGyf7bZGcFZP13V0XScQCBAMBgkEAnsCNyGEEEIIIYToihRFwWAwYDAYMBqNGI3GVgvI9vmc1gzO6tVvcu9N1wdobfBxQgghhBBCCNHq6oOyvf+99/9b/fPaIjg7GAnOhBBCCCGEEF1Be6/x/P+/JZKYQV/3OAAAAABJRU5ErkJggg==;" vertex="1" parent="1">
          <mxGeometry x="240" y="30" width="520" height="57" as="geometry" />
        </mxCell>
        <mxCell id="KGGsZ-ZlMWvUG5d2Pkvt-2" value="" style="shape=image;imageAspect=0;aspect=fixed;verticalLabelPosition=bottom;verticalAlign=top;image=data:image/png,iVBORw0KGgoAAAANSUhEUgAAA8sAAADpCAYAAAATfaUPAAAABHNCSVQICAgIfAhkiAAAABl0RVh0U29mdHdhcmUAZ25vbWUtc2NyZWVuc2hvdO8Dvz4AAAAtdEVYdENyZWF0aW9uIFRpbWUARnJpIDA0IE9jdCAyMDI0IDExOjMxOjE3IEFNIENTVErNUbcAACAASURBVHic7N15eFNV+sDxb2/S2zTplm6hlFJLWcpiQUFGXEDUyigu4L7iMv7UcRkdHcUVcXfEZRzHGbdBRUDFjVFxQwUqFEVQKFtZ0lLSLd1S2iRNb5Ob3x8UKKVl7wbv53l8LMnNzcnJzbnnPWtIMBgMIoQQQgghhBBCiJ2Uzk6AEEIIIYQQQgjR1UiwLIQQQgghhBBCtGDsyDcLBoO7/SeEEEIIIYQQQuxNSEgIISEhAChKx/X3tmuwHAwGCQQC6Lq+878djwshhBBCCCGEEPurecBsMBh2/r/d3q89FvjSdR2/34/f75eeZCGEEEIIIYQQh82OoDkkJGRnwGw0Gg97r/NhDZZ1XaexsXG3IFkIIYQQQgghhGgvO4Jmo9F4WIPmwxYsNzY2ommaBMlCCCGEEEIIITrcjqA5NDSU0NDQQz7fIc9Z1nUdTdN29iYLIYQQQgghhBAdbceaWcFgEF3XUVV155Dtg3FIPcuBQACfz7dz4S4hhBBCCCGEEKKzhYSEYDAYCAsLO+hh2QcdLEugLIQQQgghhBCiKzMYDJhMpoMKmA8qxJZAWQghhBBCCCFEV3cosesBB8u6rtPQ0CCBshBCCCGEEEKILi8QCNDQ0HDArzvgYFnTNAKBwAG/kRBCCCGEEEII0Rn8fj+aph3Qaw4oWN6xh7IQQgghhBBCCNGd7NjFaX/td7C8Y/i1bA8lhBBCCCGEEKK7CQaDaJq23zHtfgfLB3JSIYQQQgghhBCiqwkEAjQ2Nu7XsfsVLOu6LsOvhRBCCCGEEEJ0e42NjfvVEbxfwfL+nkwIIYQQQgghhOjK9rczeL+CZelVFkIIIYQQQghxpDgswXIgEJA9lYUQQgghhBBCHDECgcA+R0/vV7AshBBCCCGEEEIcKYLB4D5jXQmWhRBCCCGEEEIcdSRYFkIIIYQQQgghWtjXdOO9BsvBYFBWwRZCCCGEEEIIccQ55GBZCCGEEEIIIYQ40hzyAl9CCCGEEEIIIcSRRoJlIYQQQgghhBDiAEmwLIQQQgghhBBCtCDBshBCCCGEEEII0YIEy0IIIYQQQgghRAsSLAshhBBCCCGEEC1IsCyEEEIIIYQQQrQgwbIQQgghhBBCCNGCBMtCCCGEEEIIIUQLEiwLIYQQQgghhBAtSLAsug9XHb/mlLPeqXd2SoQQQgghhBBHOGNnJ0CI/VPPl0/l8PTiAMY+abzy3kCGGjo7TUIIIYQQQogjlQTLonsIePg9p5o164CSSrZoMDS8sxMlhBBCCCGEOFLJMGzRPQQD+LSmvxt1NBmJLYQQQgghhGhHEiwLIYQQQgghhBAtdJ9h2JqT5V99x6oSD407Hgu10OfUCzkrwwI+J6t+WsjyXDuOKjeaomLtOZChY87itMFW1M5M+04e7Iu+I8fuJqL/SZx1SjqWjk6CVs/yr4pYVaI1y0eVPqemcVaGEXxeVv1UxvLcOhxVDWhKKNae0Qwdk8Rpg8P3Ix/9OBYX8d3ybdgdXpyuRjRdQbUYsVrD6d0vmhEn9eSkfns/k5Zfwmc/1OJqDDSd1kuuq+nJxjq+e20tVa0Nw1ZU+pzW9FmEEEIIIYQQ4iB1n4hi5bs8MHUGxfV+do7AVYzErlKIOLeKT2d8ztKN5bhq3Hg1P3qIgmqKImbOB4y+fipPXDu04wPT3XhY9dpd/G36r5S6/Rgjk/j+1ld46dqMjg3kV27igakFFNfrzfJRIXZVCBHnNvDpjGKWbvThqvHj1QJN+RhKzJwCRl8/jCeujdtLPmrk/ONnHn9/G1urG3F7/fgag+hBUIwKqmrAHBFKbPxmBp+Ryp9v7ceI+NbP880/f+epbxvR9OD2h4JBancGyx6+fW0jP7U2LiJEIfa3EAa+0ZeUg84kIYQQQgghxNGu+wTLMYkkhQfZ6NqGpjXi8WyfwFo27+/cvdRHUWEZtRqoFhu2Y5Kx1G8lP38L5WVFlFU/Tq+BM7h7ZCeGy7WLePu1L/g139sUpBZR/uosrrjsCU4xdWA6YkxN+aihaeDxbE9N2bx13L00QFGhrykfVWzHhGOpryc/30N5mZey6pX0GjiGu0e2cdkUFfHGm6X87NgeiKtJkYwaaCbMEKShvhGno478wgbKHG7yt3qwF/h4etqxnLRHwKxgTQwl0OBlW7PJyY1NcTNBHW99s57x5gxh9IoPJ/LQckkIIYQQQghxlAsJBoPBtp7UdR2Px9OR6WlbQyWb87ZQWa+hl3/O5Bv+zSoNCAGCoCYOZfw1N3Bl1mDiLOEYAy7Wz3iIO6avQgsx0ftP7/PLi2d0Xu9y1QwuHnI73zXPzuhLmJn3X87vyEQ1+Nic56ayXkcv38rkGza1yMdoxl8zgCuzooizGDAGGlk/41fumF6HFqLQ+08n88uLvVrPR/tazhyVyzLf9n8ed89oXr88AiUE9ICOz+vHucrBm69u4rtNOoo5jFG3ncjsR3pi3e1EQdwl28hzNOtZDrh48+bf+MQBmOKY/OEwxrbWyBCiEJUczaCUUJmQL4QQQgghhNiryMi2u9m6T89yWDx9h8bTF6B4DTE7IqEgkDSG+156motHpNE7MaLpQ+n0N13Af2euYpnmoyhnCXmBMxjeWXvzRp3MxKwUFs51sL1PXCV9/HmM6MheZYAwE32HmprysbpFPiZy30vHcfGIKHonGpvyMUh/U2/+O3MtyzSdopwK8gK9Ws/Hnr248Ypiqr7xEjGkF7dd04OMPrsf6B8QQdoxCu7r15PjauDXD/NZ8OeeXLhb73IIET1jGNGz+QuDzNsxR9kQRv+RiZzUuePqhRBCCCGEEEew7hMst8VgZcxNU7nhjGOJD2v+hIK5TwZ9ImFZFeglxTj9QGcFy6GpjH/03wT6z+WnLW6s/U7nostOp0dnpaclg5ExNw3lhjNiW+RjCOY+1mb5WN92PoZHcs7fRtL/aj+h0WZSU/c8yBgRTv9T+nHxyA3kfKujFZezbKPOhfHSDyyEEEIIIYToOrp/sBwxgomXDG0R4DUxWojY0RvZWI+/zQHnHcFITPrJXHhzOqM9ftSIRHrEm7vOUOGIOCZe0jJQbmIMbZaP/r3ko0JUSgzHN1tZy1O6jfUbt+HY4sVR2UC1qwF3fYDCwh3DqzXKyjv1ixFCCCGEEEKIPXT/YDkhg8E92voYCsrOaFRv45iOZCQioRcRCZ2djlYkRDG4R1uhe0izfNyPwLZ2G4u+2cq3P1bx26YGaus0vJ4A3gYdrTGA3w/+hp2rdeH3H3ryhRBCCCGEEOJw6vbBsmqJIiq0s1PR/amW0MOQjzr2b9byzzdKWLrZQ1m5Ro23KShWFWxJJlJSzFjCFTSHi+WFXaEBQwghhBBCCCH21O2DZUVRUEI6OxXdn6KEHHI+Ouev5G9TtvDL5gbcfrD0iubcS3ow4rhYBvY1E2cxEB6mYDCEsO7lH7mhsOHwJF4IIYQQQgghDrNuHyyLLkKr4t0XCvhpg4amGBl6xWDuv6EHA3qGE2tVibIYMDYLxt3W9mnh8JS62Fym0HtwNFa1Xd5CCCGEEEIIcRSQYLmjBTy4yjXURCuWrrIS9uGwtYwFKzW0IKj9j+H+B9PJ6h2Gethi4v1YCs1VxDM3r2FBVQi9Lj2O9+5MROJlIYQQQgghxMGQYLkDeX5/j6demMXyUh1TrxFcdd9DXDb4CNks2O+nIdD0Z5hK7157C5T9OMsPcFUvQygRO7JK91PnBlpknbaplHlLXdgboCDD0yWWdBNCCCGEEEJ0T11m56IjnraKt5/4OzO/yeHnX38m+6uZPPXUTPICnZ2wwyQ5lsG27X/qBQ7e+mQbntaOC2jk/W8Nb2Qf4AcPMZPWu6ltp2EbPy32tjivl29mleHQtv+zd1qU9CoLIYQQQgghDlr36VkOuMjLXsiqEjda1XLKmmItrSaXz2a8R7IagW3QSZyWaYPCHL5basfVkMfmHRFbo4OFs95jm0nFmjqCsaekt+yYbF81q/lp2VZqmoI5vaGGLYuXsKb+ZjIiOjAdAY287BJWlfjRqqqa5aOLz2ZsJlk1Yhtk47TMcCh08t3SOlwNtc3y0cvCWZvZZlKwpiYw9pTI7fkYYeO6SXF8/kwVrlo3nz31MxXLenLGiEhSbCphmkbZlm38+ksVy36vIa/Z3srrP1vNazXhWMJDieiTwPhRka0EuqGM/mMCti9LcQY0fpi2jIfKezOqnwnV42XV94W8/4UXLQgkJjJpYrS0BAkhhBBCCCEOWkgwGGxz41xd1/F4Wu0f7Hi/P8+EW2eS7/aj+92Ul1TjCwJhMfSwRaEqRky285n2yW1UP3gJT2VXo+k+akrKqfUDIWbie8VjVhTUyKHcMeM9ru/bgen3/sRDoyfyykZt50PqkHv5OvsRTujIJovfVzPh1i3ku3V0v5/yEq0pH0PpYQtFVRRMtmSmfZJB9YMLeSq7EU0PUFPS0JSPBuJ7hWFWQlAjY7hjxuid+ag5K5j15K9MnbkNVwDUqDASY0MxmxQUXcfnaaS6SqPWF0SNV7HUarg0UCPDiI82YDSEYLTG88jHJ3FR4p5J16sreO2OJUz5oh5NUYjpEU58pAHF76fGWU+5OwjWaK55YiSPXRFPvGwpJoQQQgghhNiLyMjINp/rPj3LZhMGj4uSIhda8xG8DTWUba0B1YItKYIoNRyvqlFVshWX1uy4oJdKx1YwqFj7jCQyvIPTH34c10/5KwXPv8OCTRqxGadx7QPXM7ijvwGzEYPHR0mRv0U+NlK2tbFpP2QjUaoRr6pTVeJtkY8BKh1eMChY+8Tulo+qLY6L7j2RlMwtvPeZg5zlXoq2NNseSjWSMiiBs09J4o9nJxC+Mp/pn5axKt9HZWkDGgpWq4HoNsZPK7FxXP7YiVj6bOTduU5yizxsLmk6dVQ4Q89J5tKr0rlgTIwEykIIIYQQQohD0n16ln1l5K3ZQmW9ht5aihUDppg0hgzugbYll7ziWrTWVngKUVAtPeh/bF9iOzig0r3l5G/egrNOJywqkWP69SHe1LFpwFdP3ho3lfV6G/kYgikmgiGDw9G2VJNX7G8jH0NQLSb6Hxu1Rz76a71sLaqnssJHabmGuz4A4WHYEk3EWFXiE0z0sIWhbPOwpchHjSeA1hhEJwQ1OpxBgyOJanOlcB13WdPrtmmUltWjqWEkJYUTbzPTu7eZmLBDyyIhhBBCCCHE0WFvPcvdJ1gW3U9QR2vQ8QcAg4IpTEE5nNsr6zo+n46utMO5hRBCCCGEEEe8I2MYtuh+QhRUk9J+q1IrCiazLOMlhBBCCCGEOPwk0hBCCCGEEEIIIVqQYFkIIYQQQgghhGhBgmUhhBBCCCGEEKIFCZaFEEIIIYQQQogWJFgWQgghhBBCCCFakGBZCCGEEEIIIYRoQYJlIYQQQgghhBCiBQmWhRBCCCGEEEKIFiRYFkIIIYQQQgghWpBgWQghhBBCCCGEaEGCZSGEEEIIIYQQogUJloUQQgghhBBCiBYkWBZCCCGEEEIIIVqQYFkIIYQQQgghhGhBgmXR9QS8LHp9DdMX1x/e89ZWMefltczd4D+85xVCCIErdx7Tpz3DK1/Z0To7MeLAFS1i+rTnef3T5TjlCxRCCACMnZ0AIfbgrmTOa5tYmBLC8JGDGaoentPmfbSap151MSgilQkDIg7PSYUQ4mgXcJLz9vM8P/NHNhS58B8T5A/jHmSkobMTJg6E/evXeeH1ZegRn/H1gsv56+SbGdPrMN2AhRCim5KeZdH1mGPITPPj+NnOrJ8OU/O2r4JP3iunoCaMQUNNh+ecQghxtPPZmfv4Hdzz4vss/H0Tjtpw+o8ZSW+pXXQ7tuNGMdzqoTh/Ndmf/Iv77niAmbmezk6WEEJ0qpBgMBhs60ld1/F4umBBWb6KeYtW46rX0AL7cbxBRQ1PYcS4MWRENXvc5yDn26Xkb3Pvdh7VoKLGZjDmrBHYdjSq+uzkfLWUfLe257HxxzJm3FBs0op+mOiUfLqYMX8qwXDBSBa90wfbIZ7R9e3PnHF1AaUnDWPRhwPpL/GyEEIcGs3BvKfv5OF3srFXa6i9xnDzQ/dz9RnHMaCHWVrju5uGSuwrs5nz8hP880s7ntAoUk+8hEemPcmlgyydnTohhGg3kZGRbT7XDYdha+S8PpkpHxejBXT0NkP9ZkIUFIOZgZXvMufPGTsfdn37Eg9M/YHqRv9u51FCFBQ1nt8Nn/LM2VYAHHOf54FnF1Pt1/c8NiyRtZaveWyMDFc6PBR6nNGf8/oVM31hPp9sOIZbBxxKtcvLvPeK2eJXGX9lKn0kUBZCiEPkYflrk5nyblOg3HcCDz37AJefPIAki4TJ3VJYPOknnMP/PR5PcuxDTJ61isKfP+Kph2OxvfEIY+I7O4FCCNHxumGwbCQ80khteSHOA+n0jkpnqDl8t4dCI8NhWzGFlXsO9VUTYzFHhO78tynCTIOrlEJXK8cm2bBEdsOs7MKU6HgmXWLl/Sermf1+JddOTeRg27W13Hxm/KSh9OnDDWeGd8eLXojDQ6snb2Ut7lgrmX1VpHlPHCzX4ld4+rXv2VSlQeIY7nr2Ua49LZ1Yuai6N8VEfN+TuPC+v+OuvY0pc+0U/PQ2j71wPO8/OV5G0Akhjjrdchi2t3Qtq/Mr8TVf1DiQw/OXP8MiH5A4niffuIWhzQv10Ah69DuWAQm77uR6bSGr122lxruY5696hkUewJrFo2//hZGWGI4ZdCwpkdtbyP01BaxeX0Rt7QKeueZ5cnxA0gSm/edPDIqIpc+QY0k2d8CHP4poWzZwzem/8YOlN+8tOJmzD6pV28/iKd9y4ctuMu8/nc/vT8AccrhTKkT3YH9vMTf8pxZ/hJU73hzF5amdnSKxJw3Hsq9YWmghc1zW7lOHugrXIp6+8k/8I6ccn5LC+Odm8/KkoSSGdXbC2lltHvO/zUVLHUPWSNsR3tjkp2bjpzx81a3M2KBhjB3GDa9+xPPjD3VSlOiyAi5WfTufDQwga9xQrNIwcnAkH7ulI2wYNpiTBvOHpBYP+rcxY8cFaUpm6OgxjNnHp1OiUhl6Yir4XczYcayaxLGjx3Bqi9caY9I4blQaeMp4c8f7hKdw3OgxjOyWudj1qSmpXPfH9Xz9finvzKvj7GvbvpDbVF7Me5+58cXEc8klsRIoi6OYjuO3Mn5f0wihDSwvQoLlrqj8C16670l+cBkZ4Exkzu1DOztFLWjkzXmF6b+W4wuCLet2Jl9y7JEfKKOx/L/38+A7Behxy9DnPM95R/SwZCMx/c7hznsvZ8ntM7BXr2HOP2dw+Wn3MkKmLx+RPIv+yeRHPqWUJDZHfs6Dpx7ZzUHtRfLxyCMTi0TXZTBx6rW9GRrayE/vFbLqIBbGtn9h5+sinZRx/bjoGGneE0ezIFqD3vSnjk/2Ue2atvzOT6vtFBRsIOfXDXS5sV21S3j3ncWUa4BlBJf/5TKGxBwNVYk6Nv+6jA0FBWzKXcrKks5OTwcIiSD97Fu54RQr4KfmtxlMn+/s7FSJdlK+bjErNxVQsGklOeuqOjs53Zbk45FH+kRFlxYxNJ1LRtl5eGk+L71gZHTCAbw44OfXWVXUGCK5+tok4uVqF0J0dT4fvqbJUZrPh3/vR3c4V/bHfLbRC4D11Gu4YUTsUVKR8KN5m74NXcPX0Lmp6ShKZH+uuDaL1xbMwdHg4Ls53+KYMImUzk6YOOw0rw8fADo+aU09aJKPR56j4x7XUTQny7+eT26Jh8Ydj4Va6HPqRLIGWMDnZNXiRazIteOo8tCohBLTcyBDx2QxZpC1i8x/8mDPns9Su5uIfqPIOiX9oBfWOixMkVx4pY1Xskv47q08fj2QoX7BINsq/FhOSGXS8aH7Pv5Q+OwsmruIPFcjKKFYB2cxYVQsjiXz+H7pehxulZTBIxgzLosMK+BzsHzRUnLz7OS7IGXwGCZccNKurcraiWfDfObl5OPy7Xos1Dac8ReMwGbQcOYuZfk6O/mFDpxuiLGl0HfYSYwZmYG1a1ygaOWrmP/jCpykMPzMLIZ2wlBIz4YS5uXU4vLt2EfOQKgtjvHnJmBTdVybK8jJqWR9oY8aH4RGmUjJSCTrzARS9uMHpZW7WDTfyar8OopKGqj2BUExEhFtxNYrkoGZCYw5JQ7b3lZ2r3Ux/wsn+bU70hhkXV5Tz3LAz/ov1vJ6XmsvNGAdnMyE0ZFdpEw6AK5VzPtqBUW1jbses/TixHPGMzQetMo8lmbnkLvJgbO2EUIt2PpkMjori6FJ3e7TdgIPOV/Np6wRMFg5acLZpO7H7gJaUQ5zv1mNqxEwWelz0niyelWT8+18ctbmU2OwkTFsNFlNWzBq5atYtHgFeZscVAdiSR81gYljUzr3XgSwP7tvtCsNx+KvWLTWiUff8Vgo1mOzmHBKCmrARd7SHHI3FbG1yEENFmxJ6WSOHMOozIOdY20kfvRERvecwyyHTuXP88guncRVLafCdQSfC4fTfXCvtcSSEt9+V1Cb99Zzt29B6tqcQ07OCtYXOpvuCTZSMoaTdeZJ+3VP6BBB0Pd9VPvpJvWofersfOTIqOt1JRIsH06rZvDg1BkU1/t3/VAUI7GrFCznVvHZjM/5eWM51TV1eBr86CEKang01jkfMPr6R3l80tBOrgx4WPX6X7lv+q+UuP0YI3vy/a0v8+KkjE6sNCv0PDOd8/oU81Z+AxmXD2R8n/2YeBzwsvCtfBYFVC64ug99w/f9kkPh+vE1Hn76Kyo1HUIU1ITv+eV4+G3pWsoqt+HxK1iiP+XjH/N57K5eLHrxX3y5soSa2jrqNLBEf84Pm5/l9QfGYG23VDr5+uWpPLWoere9whVLOiWh93LMynd5/7u1lG1z4/Z4qPeDarIQaX2XXkNO55o//4VLh7df6vZL6TyeuuNZvtxYjQ8zsZ8tZ8qrD5DVoQFzPV+//DtPLWpEC+yoPYegWCxURQwj9Zc83vuxjpKKBrZ5AmgBUEINWKK28tHnPbn7saFk9Wr77Fr+Fqbel8f8DT5c7ka89fr27yskBGNoCCZzKNExBbyZHsv51w/ihnGRrZYbjv+t4cHnqnA37qrh19c0/R3UWfvZRv7RauNTCGpCHdGfn8C4Tv66D5T9k78z5eVVeBubVVWMZo6ri+DmsPm8OfcnNhVVUlPnob5RB8VIeISVOR99waUPPsMdo7rZB+5o2mqW/Fy+/f4WPoJxpyXux1wujWXvTOGp2cVoOmBQicjI5rtIO4tXbqViWx1aSDjR1jl8s+ZJHj4xl388P4cVW6uprfPQEAwj8ov5rLn/VZ694Cjvz/Qs4Y2HH2Ou04d/589aQe2xAf3x4RR9+AFfrCikps6Lx+tBw0h4eCQxce8y+LSLuPHmqzmp10HczWNO5aw/2JjlcKJX/8qC5R6uOq9jayueldN56IkPWe06yLEWxgjS/jiZaXef1A732LbvrVURD5L6y3Te+3EtJRXVbPPUN90TwrFExfLR5+dz92MP7PWecLToHvWo7uAIqOt1MRIsH07RCdjCdDZU16BpjXg824dflH75d+5Z6sOxpZRaDVSLDVtqMhbfVvLzCygvdVBardAr413+OrITw+XabN557XN+sXubgn0Hzldnc/mlj3NKJ+5NrMTamHSxlfefrcGlxnDpDfuxjVTeOr58GTimJ1ePM7f7hW6JjSNS0di6zYXLo0FpBR/adWrrNIiykW7VcGzZQGnFP7gnz4xzg53Keh01Pp2UsDLsBWupePsVPrxwDLcMaK9UhpMQH43iL6LGo4HPg0cDQip459H7CHcV4KjyoasWbL1SiNMcOIqqKS91UFBQyFa7HftDT3HPmSmd1niS99kbvLtgFdVNHYeOkjd5a97VZF3bkZVoIwnxBhS/lxqPDj69KR8beGvKckzOWgqrdHSDgjXJRGoslG3x4rD7KC6pZ6o5moxXjmljGKPOyvfXMnNBLTWNgMFI+vA4+kQpEPDjcdVj3+SlwFlPQb6brQV1FNeewOOXRO/xnUTGh2EKNFLk3hU4NjarZ/p92vb32INCbF+V2G64H3lEXAJmNCrd7u1lcNMQONdr92EPlGIvqUHTQY1PoU/vWBrL1mPfWklpcTHlU5PI+OBRsqSO0Lay31lTtv16UlMzGWrbn7nKRqyJcYQFNlHucuHxAeUVlIZ4qfXpWBLT6YED+6ZSnG/ch2NuDRvWl+INqFhTU4hw2SlcV8Hsl2dz8bjJjOiG1+VhY4wiLhZ8W2twa9Do8WyvDDs/5Jl7v8Gz1UG5xw8mKympPQgrz8dRVElpUSEFW7ewfv1mJj87lQl9D7AED4li2PH9UD92ounVrF5VAOcNaZeP2JbypZ8x58eluAP7PrZ1Cqs9J3DznSdxwmFfvqTte+tbU+7B5LRTWOVDN6hYk1JIjQ2lbEseDnspxSVOppoHkvHKhKN+aLslNpaI/axH/W2DGWeenYoOr0d1B+EkxEW1ej2+O3Uypur8vdT1trI1P5/8B5/k7k6s63U1Eiy3VG9n4eyZlLfVeamtwNFqBRNIHc+U/wyiol5DL/+C+2/8D7ka6NUFrK0CNTGTCVddzxVZg4mzmDAGalg/42HufCeX2i3ZTP/wF24aeXrn9S43VuAo8zYbPqLjLimm+qBvTodJiJFBF6cx+s3f+OHHEtY80nsf20j5WbGglPVehcyJ6Zwc1/5LYKvHXsNzb51G7ZIXuOiRb/HoPmrrVFLG3sOUu8aRHl7IO3fcxowNxaxdCRisZF7zAA9dPYIE97c8NOnvLHUuZl62g1sGtNctM4Lh//ccb46vxefXWfWfq3jgcxcENco3rwdTCqP/dBPXnD2c1FgzRt1LzdY1LPjodaZ/Z6fg929463ETCT3/xY2DOqcIrS0t2RkoA6BVUlLm7eBUGBn+fyN5c7wfnz/Iqv9k88DnfgjqlK6vAUUhfWwfrru6cmHfkgAAIABJREFUNyekhmJWwVdayrS71jC/tIG1X2zm6zuP4aa+rZ07SE1Z/a4gNt7GHc9ncrIpBII6jVoAd4WbxZ/l8fpsF6V5lbw/bTXDhp/E5X12D1yiThrEK+8c06xnWWfZS9lM/U4Hg5GxD43mzuNaS0MIaoyFwd0wKIk77S5emX4FXs2PL3salz6zAA3wbl3P+iBYB43n+kmXct5xyUSEq+ieTXz2+F94ZamH0uUfMOP7W8i6pGO2xtEqHeSX77l8l7a1mp2z3NxO8tblEd3yIJOVlFQblo5es7DQTkHTXF0lbQBp+/X+CukTHue1oVX89vr/cffHDmhwU2uwMfym+3nk4qFEVf6Pe294mRXl6/m9AjBnMGHyQ9xycjL60me4/tH5ONfOY37eZEYMa8fPBxDw4Cxw4Go51dDvxFG/4x8a1fZc8iwty8FQLEkppLTXOEZ1IJc99SYn1vjwN9r54M47mGEHAtUUrK9GTRzO1X+5gfGnpJNgMYGvmoq8JXw4fTpzcx2sXTiLx6bYSHntToYf4JZkyf3SiDMspjSgU1xQgMaQDq1I206cyITRbnKdHg5mFqiqJpIx8TT6tstadG3fW0vXrwXFQvrYG7ju6nM5ITUGs6rgK/2GaXc9y/zSStZ+MZ2v75zQxj3hcNNwFTVNQ2nx+IZKbeffHmceuevq9/iOQ60ppCe1Ty1VPXYS094au1/1qDW/00n1qB26bj5CBMNvmsab5+55PTo3rdt3Xe+3r3nz8TDiO7Gu19VIsNySZxUfTSuizXqi7qWirWA5LIF+xyXQD6B4HdYdhXIQSBrNvS88ycUn9CXVFtGU8ToZ4Rfw9uxclmk+HEuWsCFwOsd31qLNUScx4cwUFv7P0XQzUkk/+1yGd4FKs5qWwpVZ6/l6TjHvznNz9rURbR9cWcqMT9x4Y+K56vI4IjpiuyhLMkNGJIPLtvNHpfa9nEeeuoULBtkwhWRSNXIKMzaUAmA7/R7+ft+V/CE1CmNjGKemv8TSXC956wug3dqXFSJShjCi6fSBuc0KQTWF8Q/+i0cuHkafJCumpmtQH5rJ4MyBpJnv4v5P7FSs/pJXXzidcW9cTkonXKcZ485h+NsbWFHb9ED8KCae2dHt8SFEpMQ2y8dmta+gQuZVx/HcbckMTDNjNTVdfIMjmDRmI/M/0NBd1eSs1Lip1d4dheEX9WX871vI9ZoYdc0AJg6Nwdr8Gg5Y6dcvgqTGJdz5gRfXxlKmz63mwrvjd7shK9ERDBvZ/HcSwDur6UQhCrbBNk45+dBzoysxWtMYdkIaAL7yt3cNEQ6CdeQdPPfsdZzSL5Xk6KacCmaQcPkspi/9EU9jKcuWrkW7pP33z/UsfYW/PP0/7LV7DinV3Q6qmhootdwZ3PPneXveqA0qyWfey4sPZtGRu95qrm1UNSXZkpjA/sZbpsQBHJ8I/i/NOx+znXMv0/56GccnR6A06Jyc+h9WbNAgaGH4zc/w6LWnkm5V0XuMY/AT83H68lm72QPD2rE5OWBn7oP38+9lFduHjDcX1KjIb6oEB0r5/vnbWW9pGXkpGK0DuPLpl7mhPSqZIWaSBo4gCcAfydLmWZE4mjtffJpJJ/UlOd68s47hzzyWjCF9iP3bfUxf6cL+w7+ZNnssM27JPKDrXE2IJzYESgHNVUkdEHfYPti+mQdPZPKzI3D5/Ac1H1RRTEQn99m9LD1s9nJvDVrIvOpZnrvtdAamJWM1NV0zg1OYNOZt5n/gRHetJGeli5v6tvewFo3cd+7k4ZkbqG1smYs6nrLCnX8XfPYoty8x7THNQglPYMRNL/Lche1w3+0W9Sjo8vl4BNT1uhoJllsKuHEWHuQCEm0xWBl946PckDWMhN3mCCqY0wfSJxKWVYFeUkyZH+isCzP0GMZP+ReN/f7Hki1urP3GMvGyM0jqCj8UYzhjr+lFxiebyH5/C7lXDCGzjTu945vNfF2oY5vYh/P7dFbiVQZNvJFzB9vYHi+ZSewZC5SCIYWxk67aXsADhPakZ9NwxrraWjTo8KEv1tNuZ/KkUxkUu3uRoIRFkdT/ZC697wGW/X4jH+S7KZj/GrN/v5DJIzq+xTFq+E1MeyWWz75djdNg49g/XsHlQ8z7fmFH6duLu+9J48S00N1vjqEmBmWEo6KhBQM4Supp/VsOIe4PA3j8X71wBRQSUqP3rNwZDMSlxnHBNUm88qmddZqfdUuqqbo7ns5Yc6dbMGVy9QO3c97wpN33Wg8xkTJoEImGHykI6GwrKeuQIKB85Vd8+9MyavdR69e3FZL7e2Grz63xLmHL5CxsHVjE6Y0NO+fKmk2Wg9970pDOeddfsj1QBghLpmeiAhsA62gmNQXKAEpir+0LzjRo1NV6oT3HXvntLPzfD/xcso95sUEfzo0raXUTJcNmeq55khsGdWQoaWH4dQ9w01mZLRb9UzBG2EgfMZF7HlzF8klvkFtfysL/zmLJlZmMPZDe5TAzRgPgBxob8dKxwTKqldSBVrrd1vB9L+Huey7ixLSIFveEBAZlpKLiRAv6cJRUQ7vPtK0j78d5ZC+r2WeDg7d4HSuLW3kixEhx/w08eWFHDNHtqvWo7paPu3SXul5XI8FyS9Ysprx5B21eG55FPHP9Cyz1tfF8ayJGMPGy41oEyk2MFiJ2LD7V6G22aEdnMGLtdyqX3NKX09x+1CgbSfHmLrIZdwhRw9O58kQ7U37LZ1ZOBpmntXL5ai7+N6uScsXMDdckk9RZV7ghiT+MHrRbr7bJ2JSY8CGcenJcsx+fkR1P6breCasoqmSeOZ4hsW1llpGoAedwy4RMPn0xF23bGuZ9v47J7T4eshXhyRx/9iSSj6vBF2IipkcS1gNZIb2dpZ+RxlnHhLb6m4mIMO58XPPs5VsOD6ffsGYr0mka9jwX+QUeHKVeXC4/NdsaaaiuxtVUXrid9VQH6BoNW12QOvgCrji5RaDcRLFE7/yd6j5vh2zVZBtzNdefZ2BZaStDSt1FrF7n3P64NZ3h/WL2eL1q6sHAc8+hfwcXzmqYgVDAB/gbDmH6Q/RQxo60NvudGDE3FT9qxqmM7t3sBmwwEt60mYGut3PpGHocE266HMf89btP9wCgkZpNudhdACq2QcfSa48BTiqW3qdw+YjI9k3nHm+bxtjxJ7S9Or4SQcqYG7l05Cxysz147V/z9YonGDv2ACrBfv+u3najSmc0Ubryc8k/2GHY4Yn0GZTe4Sv9pp9xKWcdE9HGPSG86XENzdMR04ki+cMl/8fF2xZj9+yZi40leeQWbZ8aYknNJMO25y4iasxAzrhgYMcED122HtXN8nHXu3aful4XI8FyS2oSmWNP47S2dhpyV/DWgVZIEwYwpEdbWa2g7CxFO3uxeQAjEYkpRCR2djpaER7NxVf04NWcUj6f5eDu09L2GILo+bmAD1b5CT++P5NGqp0X6Bt7ktpi1dGdabH2Jm2PSYidSSG+R8+9FwZKBEPOGEXqy7lsCmjkr1qDi2GdsuKkYrKSdEzXXIUpPbPtYf+K0uyJff7UdZwri5n3dQmLVrhxlDdQ5/bjrQ+gNehojUECgQA7t331653c0Na1RfbLpH+bgYTSbLh2x5TB5v7nceujx3FZfStDSn97iUvu+oTSAKiDL+Xpv4/foy9VMYQTnZTaTkNK26bExhNvgLoA1DnL8XCQ/bxxKfRsEW3t+A6Unj336C1XOupzKgmceO1kksZto2GPL6aaeX+9mGeWaWBIYuxdL3P74D1OgNGSwDGpHRyRKYn02td+OeF9GTd6AI9n/4bmL2LVqkIY22+/30JzllDZVN6ExsXTzhtM7MGV/Sy3PvEVDs9BDsM2mLCdeg//eHp8By6kpZKeOWQv94Qdf+nQ3g1BTelJOf0mHuo7kTr/nu+39e0buPKtjYBK2rlTePnKHnsco6jR2HondUzdqsvWo7pZPu56125V1+tKJFhuzd5uzAdx01Yt0US18za/RweFnuP6cl5qCdO/t/PF5jRu3G1BjHq+n+0gz2fkjMvSGNSZo3NDVNS2ejxNKmoHV3L3RTHsuyhQU1JJNMKmALjLiikLgFV6MptRiIw6DEWqq4qZL63ngwU1FBTX43T5d27/oFpVUhLDiYk1YlEaWP2zG1dnL8DXDZhjTF1rVU9jFEl9B7U+bN4Vt7N8UCKTGXRs5p4LfHWW3umkqFBQD97NdjYEOLg1NkwRbVY+Qk3mTum13MEUl8qAVscXO1m5Y45yiImE9Ewyj+3IlO2NcfsQ6X0ck5yagsJvgJ+i0nJg/4Pl0o2bm0ayqKQek9L2ui7tpHpdNouWrcR9CI2CRu03KgLjO3AOpkJk1AGupNbOFIuNtIGtr3QQZtvRBKJg7jGAzGM7edB7F65Hdat8bEbqegdHguUOoChKx7WMH+GUuEQmTYxmxgvVzPiwgkkPJeyqBOdvZdZ39Wi9enHleRGdXzlu6zvvitdCYD9m+ARCCDSl3RiALjI+vwsJadZTcJB8LqY/9CsvzduGw6Wjq0YyTk5mzIkJZGZGkxpvxGwyoqohGOsc3H3+WnIkWN4n5Si/0R82tuMZ1huyN4Be8hu/lsDxB9NNF9L2D0UJUaRoOWCNu+2n2pag3nxs+YH8KFysXLFh+xQFQxzHDuvX4d9RUtbN3LkunmVFe64gv19MNjLPu6CdVsNum3LIN4WjXHeqR3UHUtc7KBIsi+4lJJRBl6dx8n9XsuRjOwtuTWCcFUAn95N8FlcFybyyL2MT5Nd9IGoqq2Afy0N57JsobJqeE5acSpLcrA4751freGWui0I3qKkJ3HzfIC4aHoEt3oTVGoo5tFmmV1W2z0rvtV7y8huw9LGS0rU6RURnCx3CqSem8M8NDnD/zo+LHNx89dG+O2wXEKikygX03PthmzYW7NzpIqnXASwHWJnDN0trtv8dncnJwzu+79+clsUN9w5hgucgVxUwmIhJSiZK7lviKCZ1vYMjwbLYU8CDq1xDTbR2/D6e+0Htk8p1Z25gwWfFzPzKzbirIqC2lFkf1+KOjOPSK+PlhnhANHJ/WY7rxvP2Mi/FRfaXC6nQAVSGjTpxv7eNaQ+ay4kLK7aOXq2lXemszXZS4Gb7Psi3HM/tF8aQtMf2NIdJqz1RXuZOWcI/VuiYM9J48bX+ZBxIGeBz4axVsSV22m7xol2ZGXXuGaTMfAdHoJoln32N/YqbSO+C94mjit/B8mUOGLyXhgvPCuZ9X7B9vq/al1NG7X+w7PzxA35wbp+baT35fM7ojDVNFDMJKekkdMJbC3Fk6H51va5Cut/EbjwrZ/LI9ZdwxaQruOrGR5iz7iCHPLUnYzhnXNOLDEVjwcwt5Grg/M7O55t1bKf14cJ+0gZ0YHQqFr3Nh+vaXmPUteQ1Xv1q6/ZhePFjmTC+V+cUHpqD+c/fxuVXXMM1V1zDX/+ZjfOIGYYcRNuxeI0Olp6Rew+Uy+sP8LMrRFiafhsBHbe3lQVlPFXM/7KS31ZVk7O4mor9nh/oIe/jR7j20iu45upLuPjWF5i3uQuWHd1BmGXXIDlTBF1tuYuok67k4iEqoFO7bCbvLT5avmeVsPBdf0d0pS8mWMvS92fv2n9+Dx5y353GnLzt23hYjp/IhYP3s6HRt4IZ0xdQHgAMKYy/8hxZdf8IpYaH7ix7wkxHUkN0x+q6+diN6npdjOSB2EXL5Z0n/s6MrxaT80sOC7+cwVNPzSKvywUjIUSNTOeiExRqVxUy56cKvphVTmmImfOuTqFnV6rEdBN6eQ6vP/4y2eUtn9FwZL/Cww9PZ1mFHwwWhl91BxNSO6dBwvndS0x97RN+zPmZn3Pm8+G/HuPfP7o6JS2Hn0K/odHbb7LBAL/M2sDS8tZXSNVKnUx/eSubDmhEYgjJaRE7z78mu5Tdc07HPreAH6u2/yu8bzRp+1spzv+I556bwbxFOfz882K+//Q1ptz3L7KPlK+mI6WfytjBVtSodLLGHt/hCyntU+QwrvvTuO0rVteuY9Yrs8g9kK0Uu61Iho0dQ4pFxTZsLKemdXZ6mtOpXTmdqS/Mw9Hyuwi4WPHOI0z+90IcDYApg0tum0TGfi1nrZH30cvM+K0WHbCedD03jo6TiuMRKmnkOE5IVLH0GsW4kR26i/YRpSvnY3ep63U13TMXKnOZvzAXp8auoYTB38nfsXaFx8782TNx7BiKawDV1JvhZ44mvfl4As3Biu+Wsr76F4p2vLbezsLZM6lJGMiYM4azczcGn4Ol3y7FXrkUx45ja/P4cvZMttgyyTozEysu8rIXkVvqRqtaQVlT2rSaXOa+N5NkNQLbwFGMybRB4VLm/2zH1ZCHfUfDfKODRbNnUmtSsaYO57ST0w9uW46DVZNL9i+FuJoanfQGFwU/LWZt/U1k7LGfZCczR3P55Ym89Us5nz67kqj1jRiHpjPplLBO6vF0suKHRazPsdMIEChjxf/mMHfIcLJGp6Otm8/8tdXbj63NY/6Hc9l27BiyMlXs2fNYUbI907XCRcz52MDgE7MY3qsDWyR1LwUL3uC+W0uYcO4Yhvey4CnNIy93Jdk/LWblBie+oEpK1mSm3jKShE4qObb88iNry71NW4f4cZf9zsLlDsjq2I0NtKIK5i+rw+XTycvbEdDq5GdvZmadATUqkuFjbaSbNPIWFLG8XMe1rH7n/qDV67Yyc3YVqimcjFOSyExUgBBSzh/AhW8t5YP8IKWLN3HPzXX88cwEMvuEE2uBukoP+euqWLzYxZo1brw7en6dZbz9zzwyE4yo4eGMOCOZjFayJOm0ZE6wVrHEFWTL3NXcF1PH+BOiiEVj82+lzPmgnNIAoIZz9jUp9NjP6Qzaxl/5caMLrSk9utfJpux3mbngOkZf2PqKoe3CY2fpghXYazV8v+XvzG933nxmznagmqykj8xieC9wrpzPonUutKJcqnd8DucK5rw3E2t4BL0HjWH0oE7YMCP2RO545X3O96gkZXTFVn0TqRfcya1zl/Hoj06ci1/m2f8O583bhrd9v6rMZX52HsvymnLalcv3H8+lPHMMWYNU7AvmscK5/dtqzF/IzI8bGXhyFsPjnKz4aiF2DUCjbMVnzEkYyvAzR5He4SP9jaRNfJK3BzvRo9LI7GpjE32lLJ0xhdvLVnBO1nD6xDTi3Gxnw285LFjyC+uKvOgGK6P+/Bj3nJG0Xwtgautm8Nw/vt8egEdlcvVfr2FIB28h3V1oRSuYv8yOy6eRl7er5y4/eyYz60CNSmf42FGkm1zkLZjP8nIN17KyZveEr5g5ezWqyUbGKWPITOz4HklT5iSmzRxFjRJPv4Gd0CPa3etRTTo9H/emm9T1upqQYDDY5kA7XdfxeLraECuNpU9dwF8+KsKnAztT76Via8X2yqMxCluydVeLfAgoBguDbn6H92/J2Hkm1+d3c9FjP1ChualyVODWAUMEtl5xmMMSOOeJT3jm7O2VJceHt3P133+iusFNRdHu72M2JXLh81/zaNQrTLxtJvluP3qjG2dJFb4gEGYlqUcUqmLEZDuf5z6+FddDl/JUdjWa7sNV7KTWD4SYSeiVgNmgoEYN5Y53ZnDdblsjtTNvNg+NvpBXNu4q6NUhf+Or7CmM7II/GL1iK385awkztyooQYVTnzmLj26O7pRVsD3fPcB5D35FxbYKHE43eoiJuOQkYqxDufPNP1M1+S9Mzy3A4dIgNIqk5ASiel/KP19I5b83/J0F9gIqvIAlgVRbDAlnTuWT5/c2r+TQLbq3H+e97gRUUgb1wb0hD5cSQUIPG7EWI/76WmpdLqpqfegGK5kT7+WRyVcwdkBcp600XvT2RZx89/xd2yUZbFzwRjbvXXIAi9Ucsnq+uHshUxdsX4HWV+XFWbe9IDInmkkwh6CEGhl6+8m8dexWJt5awFYf+GvrKa7eHlirMSaSYgwoBgPx5w/j88eStwcaeiMF36znb5PXM79QB6OBuAQTMZEGwozQ2ODHXdNARXUAv6JgiwNnuQ4GBWt8GBEmBcVgoO+1J/LZX1tp0dbq+XHaT9z8UhVOLQRznImk+FDC0Kmrqqe4MoCuqoy6+Xj+cd8xDIzev2hZXzON07KeYOVutwuFPrd9y8pn/nBIuX0g7G9P4pp/raKuUUf3VuAo9wJgjLKRHGtCMajEjZ3K+1Mj+PdFf2OuU0NvqKW0rCnQD48jOTECo8GI5ZirefWTexguQ05boVHxy5v85foHmFcE5pRRXP/Ev3nswvRWygaNFdMu4JbZJdRWOijd5gfVSnJyLBFpV/Pa45G8fMsrLLEXUlEPSoSNlMQoEv74NG+e8i3/N+UL8gqcuANgikshyRrNCXe9x1uT0jvhc3ch/lVMO+1UnsgFDDYyBkD+Oie6OQ5bj1giVB1fnZva6ipc9X6wpDP+9ik89KezGdJj3+MVtKJ5PH3nfbzxgwN3iJVRd73J9PvOIrmjN1juFpx8cfcVTF1QhRbQ8VUV46zzAwrmxBQSzKCERjL09vd469i5TLx1Blt9Ov5aJ8XV24cCqDFJJMWoKAYT8ec/x+ePje3YzpIuoDvWo7qD7ljX6wyRkW23BHbBEGhfjJgsCjXOQpxtxfH+WpyFLSbvRKUwJHz3Uj40Ihy/q5jCymbj9wNunIVu1Hgr4c0mJZksKg1VxRS6mh3b9D5qko1wsxHMYSjuaoodrt23cWhwUVroAtWCrYeFKDUcb2gDlcW7enEBCHqpcBSCQcXaZwSWjr4phR/PdY/cSf4LM1i4SSM2YwyT7r+eIV30KlHik7j6gmg+eHEbWkoy150X2Wk/7BCzAX91s2sp6KOqqBhf2AjUsCjCFC/VtU3PNdZS6vCh9zZiskQS5itnm7fpRJ4KCov8WAzmDpyrqDBk0j+Z1PgB0z+aR85aOxU7rl+Ljcyx55M14TIuGDOCQX2snVp49hh/Pw+saOD1r1ZQpqQwfOKt/PWMjl7yxYjZ6Ke2zLNHGeQt91IIqPFmRpiNGMMVQt31FBbtPpxaq/FRWANqlEpCWCg7t5JUQkk7vT9PvxbJqA8LmLugirxCD1Wlu15rSTRzwh97MOaPvTg9zce379iZt6IOh7MeRyWolnD6h7UR4anhnHTjCfwzejNvzSkmZ3U99qr6pueMpI9M5pzL+nLF+AQG7GegDKD0vZKH717NMzMWsbrUhaYB6DRqHTs+12IOpb5lmQ74a50U1oJqsRFtNBOumggN1lLscO5eVtdXUVxYBSYrKX3CMHe9bt0uQiXh+Mt5+IHfsd83h7yiX5n99H2E6E/x0MUZLSr5RoxhCjXFBTh3XA6ai+KtGinpYZjN4YTWV7Kt6TLU3U4K/RpWVcViCcdf48Ld9B35qhwUN6qMNB1tYcQ+GPtx0RN3YP1xBu9/uZDV+ZsobnpKTcxg1NlZTLxoImf8YQj9EvcjUC6cz7SHp/ButgO3rpJyzj08cvNoCZTbFN50TyjG6Wle9uh4ywub7gnpjDBbMIaHEeoup7DFFlhaTWnTPcFGQpiJtrYXPpJ173pUd9B96npdTTfsWQZvyRpy8yvxHch8vVAzSf2GMaDZ0Ba9tpDctYXUNOw5L1AJiyFtSCYpkdtrS/6aAnLXOajVWjk2PJb0IZkkG0pZt7qASq+G3lquKkZM1jQyhyTRULCS9UW1tHI6CFFQI5IYkNmPuA7+peteJ/ZNBTjrdNQoG2n900nocpPmdvHZC3jwzk1U/vF4/nVrPFGdVLnV6wrJXdPyWlIwRiQx4NgU/JtzsVd68e+4LkIUTHHpZA4wU5q7luK6poWdABSVqJQhDEuLatchmLtaG01cMquM/5xSTEFhMRUlpRRXu8EUizUhjsREG0kpKdgiukKriR9X4UbsJdX4QszEpvSlf3JUB7f6BaktqGZdcWObZZASZiSpfyz9zD7Wra6j3Nt6MauEKsSkWsns1eKHrvupKvbgKGugstRLlcuPhkKE1URCokpMbDi2nuEkhAdwbnFTXN2I16fj10ExGolPtzKoR9tdolqNh4LCeiqqNLZV+qjWFGJ7mLHZTCSnRpB0ED8kX6WdjQVOin98mluezcYVUDnlmWV8dVufAz7XwfJXbWLlxlLcrZTpAIrRRFTyIDKPUShevYYCl6/1stqgYo5LI3NQUtebM9yF6LUFLJnxKH95fC72BhVr2vH88do7ue+m8bsNk/aWrCHXXomvecNEiBFzQjqZ6UYcqzdQ6m5WBhpUYnoPYYjVxZoW92glNIKkjGH0i+sK5VEnat6zbDqLf+XOZoJeyJZiJ+VFxZTWaqhRNpKS4olNSKJ3ShJR+6z9ajiy3+b5l97iy5wNVNSr2MbeyYvP3sq4gUdXL9OB0aktyGVdcS0+fxtlT1gESf2H0c9cwbrVdsq9rd88lFATMalDyOzV1ea+tb/uWI/qDrpnXa/j7a1nuVsGy0LsFGjEscGNZosmPe5oLxIPzO4FaDn/Pa/pCb+GT/ODQUVVjSiyDVen0hsDaJqOTghG1YAaehi/kGAQf0MATQ9BNRkwHupPyLWCl26+hqe+LUIzn8yjP/yPewZJFftI5nfZWTL7BR56YSa5lQpmWzrDzp3Mq89fKltKtaeWwfLqj5nUtDyArvnwNeoooSZM6v7/qJ3fT+WmRz/k/9u77/CoyrSP49/pCUN6MgESSkIJLSABBVFARVZRxL4qi3XRXbtrA1fXvrqua1vW/tqx66qsggVUBBGkGxASU0hISDJpkzIkmUx5/6CHGiBlwu9zXbkumJOc3JnynPs+T1u2oZBav53+k+7g7ul/4LRB8YToOiASlJTrHZwONgxbZBcmC93bYhGejsxsJcSsAqe9MFpMhFhaqOowGDCHmA//QuBzk7P4U2a99gpv/7AZT8BKyu//zJQ+eh91dOao3pww5U7+0z2ZF//zKh8u+Y2Vq/KoPehtx+RIM1pD6HQIH736wrWsXFs3DF35AAAgAElEQVSIJ24I51x5HddedBrDeseoUBbpiJTrHTQVyyIicuh8OXw4YwYvLNpATk4+5XVmEk+6mQdvPoWuug4fFcxRvTjmtCuZnjyGs9bl4uk+imT1Kged+AkzePmlC/An9Kdfv74kO+xH/RBWEREVyyIicui8Raz6fh7LMrwQnsyEq2/m+ilnMDpJe8wcVWwx9BocQ2KfofitIVjVGxl0QrqlcerZg8EWglmvn4gIoGJZREQOh2UgU+77O9HrPDiOGc1xQ/rTp2uYLi5HKXOIlkQLXka9fiIiTWiBL5GjhoeM9x/iic83UFnvoWTDj6zO8wBG4oeOY2AXK/bIZCZcey9XpmlrFjl4/oYqKmv8hERGYVeVLNIyfAV88c9/8OHqEtyeCn5buoycWsAYQ/8Th9Az1I69x2iumn4DYx1tHayItA3leodCq2GLCFDEm1PHcvvcUjw+/9Ytc3ZswQAYjJitYRx393y+vLlfG8YpIiJ7qJ3LjSOv4t3NdXj9/t23PTOA0WDGHN6Pa99bwkOj2yxKEWlTyvUOhVbDFhEgiuPO+yOXdP6NyrpG8DU5bAJLRG/GjevaJtGJiMh+hAzmjCv/gPdXJ27PXo6bLNgTRnBGn1aPTETaDeV6R5p6lkWOIt7aUorKamjw+XfeadzOAEZLGDFd44mwtEl4IiKyT37cZUWUVtfh9e/lsMGIOTSKbl2jtMCayFFMuV7zaRi2iIiIiIiISBP7K5a1hZ6IiIiIiIhIEyqWRURERERERJpQsSwiIiIiIiLShIplERERERERkSZULIuIiIiIiIg0oWJZREREREREpAkVyyIiIiIiIiJNqFgWERERERERaULFsoiIiIiIiEgTKpZFREREREREmlCxLCIiIiIiItKEimURERERERGRJlQsi4iIiIiIiDShYllERERERESkCRXLIiIiIiIiIk2oWBYRERERERFpQsWyiIiIiIiISBMqlkVERERERESaULEsIiIiIiIi0oSKZREREREREZEmVCyLiIiIiIiINKFiWURERERERKQJFcsiIiIiIiIiTahYFhEREREREWlCxbKIiIiIiIhIEyqWRURERERERJpQsSwiIiIiIiLShIplERERERERkSZULIuIiIiIiIg0oWJZREREREREpAkVyyIiIiIiIiJNqFgWERERERERaULFsoiIiIiIiEgT5rYO4JB43FS63DQ264cs2GOisJv2ccpKJ67mnRAskTiirIpRMSpGxdiBY/TgLnPh9jczxHAHUSH7OOiuxOlu5h9ttBMZa2fvf7ViVIyKUTEqRsW4yxnb/bX1KI0xCAVdsexe8zr3PvYxGyq9NO8zZcQcl8pl9z3Ihb13fQELmPfIvcz8sQhPMz+kGDvTZ+JtPHjDKKIUo2JUjIqxo8VYtoRnH3iCL7Nr8QaaGWJIV46/7kHumZC4y6Mecj6+l3vfSqe8oZl/tMFM5/7n87eHrmCIfZfHFaNiVIyKUTEqxh2C4Np6lMYYtAL74fP5AtXV1e3qa/mjJwXCzATgEL4scYFzXsrY/ZzODwJXJloP7XwYA/aB0wPfVipGxagYFWMHjHHe9MCgMOOhnc9gDXT94weBst3a8IzAy+fEBcyGQ4vRGDk68MjP1YpRMSpGxagYFePeYwyGa+tRGmN7/tqfoOtZ7nrsRE4fWcGKzbXN+0Gjhc7dj2P8kMjdH7cM4pTJY/llXg6VzR1mEBJF6qRRdG8y81sxKkbFqBg7RIw9RnHWycPwrquksbnD46KSOWlcvybDlyI5ZvzpHJ/7M4XVzR3C1xnHsNMY3qXJ44pRMSpGxagYFeOOB4Pg2nqUxhisDIFAILCvg36/H7fb3ZrxHFhDOdmZeZTXeZv5g0bM9liS+vUiyrLr435qCjLILq5p/jADk5WohL707mLffaU0xagYFaNi7Agx+t0UZ/9GQaWnmcO6wGgNo0tyXxLDd0+1vJUb2bCxjC3NzYowExqTSJ9kB6EGxagYFaNiVIyKcW8xBsG19WiNsR0LCwvb57HgK5ZFREREREREjoD9FcvBUvCLiIiIiIiItBoVyyIiIiIiIiJNqFgWERERERERaULFsoiIiIiIiEgTKpZFREREREREmlCxLCIiIiIiItKEimURERERERGRJlQsi4iIiIiIiDShYllERERERESkCRXLIiIiIiIiIk2oWBYRERERERFpIniKZd8WFv7fOl5fXHdkz1tdzkf/+ZXZmd4je14REQkKlelzef3Jf/Lclzl42joYab7Chbz+5FO8/OlKnHoBRUTkCDK3dQAHrbac95/PZEEPA8PfH0iq9cicNuPjtfz9P5UM6NSDyf06H5mTiohI++dzsuTNp3hy1jzWb6qksZefYyfM4FhTWwcmzZHz5Ys88cLP+MM+4asFF3Pz7dMYk3CEkgQRETmqBU/PcqcIBnf3kvdjNm8vOkK3jutL+fitErIrLPQfHHJkzikiIu1ffQ6zH7mF25+YxbzlGeS5rPQenUZi8FwVZZu41GMZGl7Dpt9W8+0H/2b6LX/jnXR3W4clIiIdQPD0LFs6M2lqPP9asJnZswq59ZQkHId5ysqF2Xy81od9ZBIXDQmep0JEDpPPTc7S+fywZAUZ+SU4axqx2OxEdUsiZcAIjj9pJCkxjaS/909e/tHDqGvuYUqqva2jliPFU8Dcx6fzwKvf8Vu5B2vCGK6bcSdTJ4wg3tDWwUlzhQ25hPue6Ur/mY/w7Jwc1n77Do81+LE+dj8XDNDnttncBaxcMI8lKzPIKamkcksjljAH8YnJpKaNYuzoVBxkMPuZl5lTlswVf72OUVFtHbSISMsIogrRSLdT+3JWn0Je+y6H/2b25M/9DqcLYAtz3iokt9HKGVN60lsdyyJHBU/uPJ6d+QpzlmZSXFqOq7aOOo8Pk9mCNTSMyKhYHG8P5uTT+5Lz8hvMLfCxPulCpqSmtXXockS4WfnyXdz7+rZCufdkZvx9BlPGDqRbZ3UrB6UQB32PP4trYmPpFvU37n4vndwf3+Pv90YR/8JfGRPT1gEGCw/ORW/w1PMf8WPmZpxlLmrqPTQ0+jBZQwm1hxMVE8dbA8dx2uBS3nv5MzLqY4g6axqjxmrYu4h0TEFULIMxMo7LLojivUfKefu9Mi6918Gh3jP2pOfy5g8ejElJXDmhU3A9ESJHlB/n+nJy6kJJHdoZeweer+nJ/oiH7vwX7y/JpLjGC3YHKQNG0D3cRkN9CYXrM8jJKiYvN5vcDRE0bK7A7Yf84pq2Dl2OkMrFz/Ho81+TUeoBxxhu/Pt9XHFqX2KV6wc3YyiOlLFcOP0fuGtu5IHZOWQveJUHnxrG2w9MxNGB27UjpeCbJ7nzwbdY+OsmqhrB6khm8NAEokOg1lVIxq85ZJdsIjdnIxk/+nA6a/DSiLPC39ahi4i0mCCrEc0MujCJMS+s5NuPs1h4vYPTD+mOsZflH29kdaWRoVcnMypG4+7k6OVZs55bbt9EvsfCuBmj+fvE0LYOqWV4MvjgH4/z1vfrqfDbSTnrRq6/9HcM6hKB3WrE76vHXV7I8rmv8fJr88gp2Lnyvj/QhnEHDQ8Fy79kSV4nUiecSkp4W8ezF5ULeemRl/lhUx2YEpl4+0P86ZSjoFCuzmDeN+k09hzL+BEOOu6fayas1/H84e7prN9wI7Mynax4+zGeOGE4j0083IlbHVzhbJ5++P/4+hcnHlsyp067jivPGEr3aDtWE3gb3LgK1zN/1rO89FUGm4t2+Vm1jwchCNrHYOCrJP2b+WSQwvgJqUTpJpi0giArlsHasyeXn7aeL98v4o05tZx+6SGsYO3czFuf1FIXGcuFF8ZgV60sR7GG30r5/udKagMG+KUOOmix7P75XZ6bk0FFIzgm3sHj903h2N5ddu9JDwyhf9/e9OncwDVPLqTS12bhBh/nFzw9/WHmV1ro74zn3WtT2zqiJjxkfDSTV5YUUxcAx/jrmX7RMXTp8FNwPKx8/a/c83oOvphl+N57jEkdeliymej+k7j59oUsvmkWOeW/8P6/3+KisbeRpunL++Ah/aMX+OgXJx5jFKOue4yHrx5Nv25hmHfNj1IH069vL2ID13H33II2izYotfv2MTi4Fz7LjHs/ZjPdyA77hOkndNxbf9J+BN8ELVMIYy/vQarFww9vbST9EBbGzvkim7n5fhIn9OG8ZN2WkqObv96PNwAQoKG+4w6ny/huDhtq/GBN5qxrLuPEfl32HHJuMBORMJCTr76NC1N0EW6WvJX8sPo3srN+ZeGSDbS7tYirf+LN1xdS7AHsaVx040UMiQq+S2Dz1fDb0p/4NSubjFU/srqwreNpBYYw+p5xHVeOjgK8VKx4g1fnO9s6qvbLl8+CL1dQ4QPiT+XqaSczMKFJoQxgttMl5UT+8JdLdOOhudp7+xgkStf9wIoN2WRvWMGiteVtHY4cJYKuZxkg7JhkLhyZzb0/5/L0MxbGxjbjh/1elr1VRoWpMxdf1hVHUD4DItI8HjblFuAFMHZn4KDY/TZ+1i7Hc+7JPXj91yw80IGHrR5BdXXUbRuO6amv2/pctyOuRR/xyYatKWrkCZdy1XH7fw90HF4a3NteDX8DdQ1tG01rMYb355LLxvPigo8oqM/n6w++pmDyVBLbOrD2KOAkN2/rtBOrozcD97tHtZnoYecxadAzrPz5CG3jeTRo5+1jsGhw11EPgJ+6er3/pHUEZ64QGs55U+L5z6LNfPnSBn5uzjA6vx+X04t9eE8uG9HCKXB9Dgv/t5CMykYwWYgcMJ7JI6Mo+Gku3y7NoKDWSuLANMZMGE9KJFBfwMqFS0jPzCW3EhIHjmHypFE4WjhMd+Z85i7JxVW/8zFLfBoTJ6XhMHlwrl3KivU55OYX4KyFyPhEkoeMYuyIFCLbSRXhKU1n/vcrcZJI2injSW2DYYbuzCLmLqnGtaN31oglPpqJE+NwWP24ssv4aUk5Gfn1uOrBEh5CYkos40+OI/Eg7tJ7Sl0snF9Cem4thUUNVNQHwGimc7gZR2JnUgbHMnZ0DI79fR58daR/VcDSgp2X6i3L3Gy/5FSuyeO5l0r3Uhzu+rcc9FPSjpjpFGoDasFXSGaWG7rs70kP5ZiTRtLl5SzyPVa6xse3bHiudOZ+uZLC6sadj9kTGHn6RFJjwFOewdJFS0jPKsBZ3QgWO46kwYwZP57ULkH5grQyN4vnfMPmRsAUyehzJpJ0ELMNPIVLmP31WlyNQEgkSaMmMj6hkiXz5rPk11xcJgcpQ8cw/tRUHKat7dDCxSvJyCqg0hdF8sjJTB6XeMgLUR4xbT6n1EPB4i9ZuN6Je8fUBguRg8czeXQiVp+LjKU/kZ5VSEFhAS7sOLokkXrsWEYOPtQ51mYcJ53LmK4f8W6BH+dPn7OweCqXdDlif9TBq3dR4Kw9tJ+1R5EY09LvICuh2z4P3qIcsitg0P6uobY+jDmhN9af1+MxOYiPb+E2SO3j4QuSfPSAAtDW4986Qs4szROcxTJGEk9NZlJSIa/m1tP3whQmJh3EcDrfFn54LZc8r5Wz/pBMv04tG6Xr+5f42yNfUOrxA0Zs8fNZNtzAqsXpFDpduL1G7JGxfPxdLvfdmMDCZ57n89UFVLiqqfGAPXI232U/wrN3jCGyxaJ08tXMB3hkQTkNu8zPNNr7sNl8O71+mcX7X69ls6uamlo3dV6whtgJj4mnR+rJTLnmei4Y1nLRHZTiuTx2yz/5X0YZddiJ/Wwl9zxzB+NbtWCu46uZq3hkQSMNvu2ZqQGj3U6ZfSg9l2Xyzrc1FDjrcdX68PjAaDFhj8jj4/8lcPO9qYxP2PfZPbl5PHxXBl9vqKOiphH3lq3nwGDAbDESarcQGR3Cq32imHTZQC6f0HnvCfqvuTz8YBZra3Zebvzuhh0Xn4qf85iZYdzL/AwDxpBQNjtO5a7jg3HoqpHUUSOJfGcOLu8mPnvmOU5Pupnx++lBsY/6C089OYj0mhhGTOrZotHlfPJP7ntmNe7GXdIAs520ms5cY5vPq7MXkZlfQkW1m7pGPxjNhIZF8+FHc7hwxkNcN7KNP4PtnWcdP/5UvPV9Hjqc353U5SDmIHlY/uZ9PPJOAQ1+wGQjbMAi5oflsHBVLiWuGjyGUCKiP+SrdQ9y13Hp/OfJD1mWV0ZVtZuGgI2w/81n3fRneHjSUd6f6f6J/7v3QT4p2rVHzYitawb++9PY/NGHfL48l4pqN7VuNx7MhHYKJzp2FoNPOpcrp13CqP32du5D1Fh+d5yDdwuc+MuX8d0KN5ec2bq3Lty/vMH9j3xIeuUh9iWaO5N02u08etOolssDTCmMPi6Rf/9WgL/sW55/ejaDZ0wmeZ9PlY3BVz7GTMdKyjuncvrglr0mqH08fMGRjwaDDpAzS7MFabEMxth4Ljsvkvcfr6K6UzQXTzuIbaQy1vPVs0DPrvxhor3F//jQiHBC/HXUVLhwuT1Q6KQ0009VdQOEO0iO9FCQ/SuFJU9xR4adonWZOLf4scYkk2gpISdrDc5X/sMHZ4/hmn4tFaWNqIhO+Os3UrGlEerduD2AwclrD8wgtDyLvNI6/FY7joREIj0FFBSWUVyYR1ZWDhuzcsi96wFuPiWxzYaqZnz2Mq99s4KybTed8wrKeGXOJYy/tDUTVBNREQb89R4qtvih3r/teazn/+5fQWhRFTmlfvwmI5FdQugeBSX5W8grqWNTwRZcncJJearnPoYI+vnl/XW8+U0VFY2AyUzysBiSwg3g8+GurCMnewtZRVvIyqwmN7uWzTUjuPe88D1fE7uVcBqpqfKy4x69Z2cC4vU04qraWwxG7NYwIsKDdzU8x4SpnNNnHq9nNFC88GXu/ksR6eedyfiRw0npEYm16fzliH6cfH48w71WwiNadtGzTuGRWLx11FS5afQ04t42vKzi+Rnk+AvJ3FRBgx+sMYkkdYuisSSDnFwnhfmbKPbEk/L2PYzX9XffSlaytmjr+9zaYyjHdD2Y5N5MeFQ4poYaKlwu3PVAcQmFBjdVdX7sccnEBwrI2VBI8QszKPi0gnXphbh9ViJ7JNLZlUPuLyXMeuZdzjv1DtI6/EJi+2G2E97Zi3tLBe5GaHS7t97s2/we/5j+JbW5Gymu9UJIJIk94jE7cynIc1KYl0PWxmx+3ZDNHQ/fw+TezbzKGCIYNrwv1v868fjL+WX1RjhzUEv8hftUuvi/vPPVD9Qc8mKBRlZVp/HH60cxoqWWWDGEccLU80n73zOsrC5j+dsPcmN5Or8/eyJj0lJIjtszu7L3OpFzpg7BYw4nooXvP6h9PHzBkY8Gg+DPmaX5grZYxmBh0O+TOPGVVXz/XREb/taD0/bbk+hl5ctFrN9iJPXc3oyJbfmk35Z6KY+9OJaqxU9x0f3f4PbXUVVtJXHcLdx90+/oHZrPm7fcxKzMTaxZBpgiSf3DncyYMoK42m+496rHWVL0A1/8UMA1/Vqq8AtjxLTHeGFiFXWNPtJfupx7PndBoIHiDekQksiYK6cx5XfD6Bljx+x348pfx/cf/x9vzMsha9nnvPiQldiuz3DlgLb56FcVbNpRKAPQ4GTT5tZePsPCiGnH8cLERuoaA6S/tIh7PvdCwE9heiUYjSSPS+KyKd0Z0dOK3QZ1m4t44rZ1zC9u4JdPs/jyhp5M6723cweoKNyytVAGiI3n+sdTOSEECARo9PioKanhx9kZvPyei8J1Tmb9M50hw47n901HXCQkcsfMMC51+9meu22Zt5rL/+3CAySedQzPXrq3PS0MWEJt9EkO3mLZGD+O66dfwYbpL7GktJhf57/Pc5mL+cwRS2R8d/r0SSElJYWUwamk9ksk0gpmewTRrRBb7Ek38++XL8Ld0Ej9oieZ8s8FeAD3xnTSAxA5YCKX/uECzhyWQFgnG/7aTD59+FaeW+qmcMk7vDn/Gsaf3zpb43jKC8h17vn58myq3DGcH7eTjPUZRDT9ppAoEns4Wn8v77xscrfN1TUmpZB0UL/fSO9zHuDZ1DJWvfxn7vhvAdTXUGVykPbHO/jr+UMJL5vNjGv+w8ridH4uATqlMPn2GVwzOgH/kseY9uB8nL98ztcZd5A2tAX/PgCfG+fGAiqbTuPzlbBzFzQPlTnpZHRu2lZbsHdNJLGlxghaB3DRwy9wXGUdjY25fHjrLczKAXxlZKWXYY1L45LrLmfi6N44OodAfQXODYv56PXXmb02jzXz3uRBs4PEZ28grZlb7iT0TSba9CPFPj+Fubl4GNSqSWrccZOYdGIVa507p7s0h9XiIOWcE0lu4QE9EWnXcNef1/KXf8+noCyTHz95hfzlX/N2bCQxib1I6ZNCysBUUgalMjgpEitmQiOiaY29E9Q+Hr7gyEe38+AqLKBk12H32x7PKPfs+LfbmUH6+vo9Ps+WqESS9zvN6nAEf84szRe8xTJgS+7BlFM38NVHhbwxp5bT9reNVHkxb31cgzsilikXxxLWGjl/5+4MHdUdat7b8URbe/+eux++jvNSuxBqcOM67n5mZRYD4DjpVh6981JGJ0VgbuzEmORnWJLuZv36XGixZUmMhPUayqhe2/73hW3nIWsiE6c/wz0XDKdPYjSh2xpwf1oaqccMJCn0Vu7+NAfn6tn856mTmfD870lsg8XFUyacTtprGays3vZAzCjOPqW1hz0aCOsVs8vzuEtmEzCSeskx/OO6BAb1thMduu3NNySM0s9+Y/4HHvwV5fy42sO0vfacGEk7tzcTV+SRXmdj1NR+nJ8WRfSu72FfNP37h9G1cTG3frCFig2befWzSs65JWb3C4kthH7HhrDrjeGqgvU7hqTae8Rw8knNWTEviBjC6Hv6zTxujOOZZ15m9ionxTm/UpwDmEP5OSKCyIhIIqOiieqSxIgTxzP5nMmkHcrwz2Yyx/Rh+PF9AKivnLVziHAAIkdcxz8euYIx/ZPoHrnt8xkYSPzF7/HG0u9wN25m6eJ1eM5v+f1z3Uuf49Z/zCa7es8hpb6ajVtX0wU8v7zFHTd8iaXpN5msJIy/jcenj6c1d731VFRRti1ke7xjzyR1H0K7DOS4LsCXOxMvx+m38ditUzi2exjGegMn9HiJlZkeCNhJu/rv3HvFOPrF2PAnnM6gR+bjrM9hXZYbhrZg95svh9n33s0LP5fuOlBkK38DJVnbEkxfMfOeuInMsKYNtRFzVAqXPPQEl7dEAmewkzB4FAkA3miW73qpjhvDjY8/zGUn9qO7Y/uILz/eYccwMDWZqDvu4o1fKsj85lmeeG8cr12T2qz3uS0ulmgDFAMNFaXUAK05Q8c+6HxmPDqCirpGDqVz2WQKJSKxz+7tfUsI7c7YaX/nX+EOnn5+NksKy8jbUEYeYAyx81N4JBGR0URGRxHfawijT5nI5LPG7Geo9pGj9vEICIp8FMBD+pu3cd87GVQ3Nm3MfNRuzt/2bz8bP32Am5aEskdrFhrHiKsf55GzWyLO4M+ZpfmCuljGHMoplyaQ8kkWC97JI/2iQaTuozUs+CqLubl+HGcncXbvtnp3WhlwzjQmD+nC1nrJTny3aKAYTImcfNnUrQ0TgKUbCfFGSIfqqqo2WZE3cux13Hn5yaTG7v42MYZEkNB/LBdPn86yNX/ig9wasr96gXfXnMMdaa1/pyxixDU89lQUn3yzFqfJweDfXcKU1DZfUmen3gnccmsSJ/Sx7j5P0hLCoAEhWPHgCfjYVFjP3l9lA7GjUnhgZgIVXhOOpMg9EyeTidikWM69rCvPfprNeo+XdYvKqbglhrZYz6a9MnbuztCJf+SvScdy5uIf+X7ZStLXppOx0UlNeR015cVsAjCtYu2qpXz3zWIuun0G153YmqXdLkJS+cOMGzl7ZMLu+8EbQuk5aBBxpu9w+/y4CotbpQgoXfU5c75bTNUBVljxu3JZtSx3r8dsNSO5/vbxOFqxGfY31m/bHg06hXQ69D0TTclMuvKirYUyQEgCCQ4jZAKRJ3LptkIZwBjfnWgr0NBAddUWaMllvrzZfPffr1hUeIB5sYE6ijesoHhvx0wZxF90P5cPaNVSkrTLZ/CnicPoslsXpRFzWBf6jTyf2+9aw8orXyF9SyHfvvIOP138KOOa07sc0gmLCfACjY1soXWLZWzRJA2OJqk1f+chCu0ykPFTZ5AwbDJLFs1n6fK1pP+6gdxCFxX1biqcW/cdM65ew+qfF/DNd+dww4ybmZjURj1kah8PQ3vNR2vYMH823y6uPOBCXu5N6azYtJcDBjP5vadx/9mtO9Q5WHJmab7gLpYxEDGiN5ccl8P9a3J4Z0kKj47dy5/kcTH77VKKjZ244tIEurXVX23qwshxg3br1Q6xbLu3GDqYMSfuupWJBfO2Q36/vw1W/7My5NSzGBq7ryfLTMSASfz57FQ+fTodjyudz79Zzx0tPtZwLzp159hJV5A4vII6QyjRXROIbkfzA5PHJ3N6b+teE/SwMMuOxxvc++l36NSJ/sN3WZHO4yEn00XuRjcFm7dQ6fLiqvbiKa+kaltRUFNcR4UPuujO5e5CY+kz7CS6Jw9mxGllVFRU4CotInNDOhm/ZpCRkc7KDQVUbM6ioqQEZ1Ut9plPcfng1r8BYx14NpeMaZIIbmPsHLGjLfHXu1tlK5K4Ey/m0jMMLC/ey5BSdwFr1zu3Ph6ZTFqfPScJWkPiSTnzNPq08hpxVpsJC1APeBvqD/Tt+xYxlFNGRu/yWbbQaVs7be0/lnE9d+llMJkJ2aUNb1GWoUy66kI2zs/Ycxg2jbiy0slxAVhxDBi8l9X3rdh7nMAFafsZndUSrL04+czjmhTKuzCG0fPkq7nw2PdIX+jG/dsc5q56gHHjmpFger07e9vN1lYZNtyUKzednEMdhh3qILl/cqutomuLTmLoid1J7j+E8WdXUOGqoqIom1/XppORkUHGuhCeMMwAABwPSURBVHTW5roozknHWVxCaa2RqGdvY1QbzAlW+3gY2m0+2pkR513FeRU/kuPe8xPTWJRBeuHWYe72HqmkOPbon8calcIpk1JaucAJopxZmi3Ii2WgUyQXTOnCc0uK+OztAv4yttcew1fcP+fy3movocf05bKRtkPvVThc5m707G7b7aEdsUT1IKldLUBhJK5bwv7fIMYwUk89nh4z08nyNZCzZi0uhrbJSonG0GgSkltjdmnz9R4Ss89h/0bjLgcOeAXy4/ylkLlfFvHDqlo2FXuormnEXeeloSGAx+PH5/OxY0tVr5/GNt8ypr0yYotw0DPCQU8AXwMjRo3B5XLhqqqgKGsJHz/7NO+uclG46n/8+8kTGfPyZSS38o2HsL5DSNlnIbHLquWB1rmdZu9/NtffN4yyOu+eb9dVz3DRrf+l2AfWQRfy8KNn7NGXajSFEtktqeWHlDb9vVExxJigxgc1TiduDrGfN6Y73Zr84PbXwJjQbY8bU6bW+juNDkZfMYOup7m2rty9mwrm3HYRjy3zgKkLJ9/0FNftscaVEXPneJJ72ZoeaFlGB927HuB3durHaWP68fDCVXi8m1i9Oh/G9TnoX+FxFlG+rU20RMfQwptg7MG16HFu/Psc8mv38pk5CEZTKF3G/IUnHprYentEG8yExXUnLK47AP7G4Rx34qlUuVy4KivJ+flTXn3+TRYWOtkw70Uen3Uy796Q1uqj39Q+HoZ2m4/a6Dn+T/y19znUePd83fLfuJpLX8kErPSadA9PXbzn2DmjNZKuvbq1cq4fXDmzNE/wF8sYSTytN5N6bOb1edl8nt2Lq3ZbJKmOb9/JZ32dmZMuTmJQW47ONdiw7SsvCLFha2drJxlNB3572Hr0xGGGLB/UFBVS7INI9WTuwkh4xBH4mLnKefeZDbz/nYvsgi0Ul3t3bFtgjbSS6AihW5QFu6mB9KW1uA555dWjlMlGWEwXwmK60B0YNLA/fXtGw/W3826mm+x5r/LhmouZ3spDpjpFhdLK5cv+mSNISEllr7ucVcfuaMOM4d1JPWbYQc8NbnE9etPdChvrYEtWNpk+GHYo7VRI2J7zDLexhNhbvRDbVWhcEgPj9nakhPTO29JGQyiOfsMYdkxrRrY/FswHfB3MdE/qgZFVgJeCzU7g4Ivl4swsKgIAVnr06k5rDzqqWPc98xevoPYwblya61fgvH9im81vNFrsRMfbiY7fWjwP7J9Ev0Qjf77pJdKri1n0xvv8dFla84bHHwFqHw9DO85HjZ270Gfw3ieQdfpq+90RI/auAxl2TMtu69gcypk7rg5QLG/bRurccGY9Wc6bH5Qy9a64nXc4czfx9ld1NCQkMGVSWNs3rPtqgNpZoQyA7yBmpviMBLbFbvYFCATjFrwtyoDxcJ+Tehdv/G05T37uIq/cj99qJuX4bowZGUfq4HB6xFmwh5iw2YyYazdx+zm/8pOK5T24Vr3Ly5+m43aMZ9qfx+838TSGRJN07PncOPVjZt+7AHfVOuYtymd62sEn6UeCURfRI6NLGsd0h4WZ4C9cybIiGHYo3XSGfX+YjYa97U8u+9e4dQupAwj4d66KG2jWxdLF6hUZW4fgmqJJPaZvq79G8adM44ZLo1hWcIg7NIQ4SJ10Jr1bNHAPGZ8/x7tLXEQeewnXnZ2y3yu/LbI7qadfy9Unf8pNnzmp2/gt8zNh3IiWjHFPah8PUzDlo8FAOXOH1SGKZQwWBl2cxPGvrGHJRzksuDaOCZEAftL/m8PCsgCp1/fhlHi9K5vDVVYBB1geyp2TRd62aSW2bj3ookb2iHN++Sv//m8FuTVg7RHHtNv6c96IMLo6QoiOtmK37PKkl5e3zErvPg8562tojIogJSEYmw0PKz54khffLcZrzyTxtPFMO1Ddawyj/9hR9LIuYJ2ngcK85vVoSTtiGcyYkYnMzCyA2lV8+0MB10xp7RXzZQ++cioqgW77/7as3zZumwNqpWtC14M/f/livlxSufXfEUMYPbz1h5bZe/+OabcP4hz3Ic6aNYUSndCdiJa8tvrW8/kzz/F6hgfrEhsnT7qLoQcqRDslMX50X6yfOfF4CtlU6IERWqxIjl7KmTuuYMx698rWuydXjM9kwWeFzJpby4RLOkN1Me98WEVNWAwXTolr2YtNh+Mh/efluKZN2s98CheLvvgepx/AytDjR7XpsCKPy4mLSByttRJKq/CzbkEx2TWAycy4Pw3jxgujSOjcujd+Mmb9zI2vu/FHRHPTs8cyea/jzPbB58ZZ2khkXCTWNusJaKB4Yx7OinqoXM2yTDfT+hw4cTYbfLBt+KQ1tCO9r442do4/azyJ77xBga+cH//7JTkXTWv1OejShHcTy5cVwKD93Lhwr+SL+blb54Bae3PC8QdfLDu/e59vi7bOe4w8/ixOjT+8cA+J0Y6jV79W3Sqt2QKl5GUXU+ECfl3F2jIYesDnyogpsG2eq9GA1dph0kmRQxB8ObMcvI7T1WruxKmXJpBibODbWXmke8A5L5vPfvPjGJfEeSlqyJvHj3PB63ywft/rd7oWv8izc/K2DnGLGcfZZ3RvmzeUp4D5T93M1KlXcMXUK7nj2YU4O8ww5AAN2xeG8UN4Yvj+C+XSumb/7Ra7ecc8TPdeez/qWPVVIUtWVPDzohJ+rTz4c7tWvcFfr5rCFVdO5aKr7uC5BQWHtCLs4fPj275WSKCChZ99RcEBnycPGQt+YqMXMEUyeHAwbP7Shqz2nQPQQuz7nNvbViJGX8L5A62An6qfZzFr8SEOiw06VqyhO/9tb08vTKCKn957l5XV+/oGN+lvPcGH6+sAsB9zDucOOsjJVPUreevVbyn2AaZEzphyJt10c2Qf/Pi3z6nespr/fZ5x4HbaV8C3CzO3fp91AIP7d5x0skW08/YxWFhDLTueR2tIe7qBHUQ5szRbB3qdDESM7M15w41Urd7Ihz+W8vnbJWw2dGLS1B4kqmVqNn/Jj7z48EwWljY94qFg0XPce+8rLC3xgslO2pQbOTepbW5IOOc9wwPPf8DXPyxi0Q9zeWfmg7zwvatNYjnyjPRJDd96cQj4WPpuJktK976yp6fYyRszN/FbM0f7hfTqTI9t15zSFU7Sm9QQ7l9y+WDZtt/ZOYzkg+2d8aTz9iP/4q3Pv2PRjz8w//N3mHnPX3n9l7Ypl3fysvmrf3H/8wsp2M8uQq6lL/HIm6txB4Cup3L+mKhWizAo9T6RcQMisYYnM/6ktFZfSOmAwodxxR8nbN2/tGods2a+R/ph7CIVPMIYOm4MiXYrjiHjGNOrrePZlZ+qVa/ywNNz9/ws+lysfPN+7nruW/LqgZAUzr/+MgYc1CpqHjI+nsmbK6rwA5GjLmfauNiOlPC0HL+ThS88wJNzctj37SQ36e/+kxcWlW99fo8/n9M0q2H/2nv7GCS6jJjAiDgr9oSR/O7Y9rUDSrDkzNJ8pvvvv//+fR0MBAI0Njbu63D7Y7WR6Cvlv1+4+C23mnWra6gcmMy/pnenW1us7OVxsnLeXL5f9C1zluTTaAglNjEKf30IiT2i2LJ+PrM//YR566vAEkmCIwSPIZ5kh4+cRV/w6Wefsao4gL9zHL06+/CG96RreMveGs/7Zibvrth2iQw04irI4Jf1+VRsqae+vIC1i79k9ruv8fwrHzL/lyLcfiuJE6bzz3vOZXBU29yRWPfWnfxrnnPbVg1+PDUl1Pc+jytObN0xd57CUr7+zsny1RX8/P1mlmzcGlGn+BCs5S4y8r2EdLMTZfKQ8X0+3yytYMXizXyT3kgAsMXYiPLUkpFdjy/GTrzdABiwx5vI+bKAdS6oLapmTXoVRRUNuMrrcRbX8OuqYr75JIuZz+byyQ/VlG5POgM+zEYfxdlVrM+qx9o1jNi9XKEN4UY2fpXH0pIAPpebLGcjBq8PV4GLZd/k8OzTuXz7WyONASMpFw/hb+dE0Olgss7yeTz5t7dZW7ft/34PNc488jsdz5TxvVp5m5EG1nw0kzlZW+8kBOrK2Lj+F1anb6CgpJzqBvB7G6mvKaMoZyXf//f/eOqZN/lmfTmNlkQm3vkYN53cjZCWmsrhzmHJvPksXLGG1cvmM2f5ZgKAJSIeR6CYjOwC6sN60jXch/OXr5n73XLWrFjM1ws3UOUHvz2WrqE1ZGfl4iKennFtkIqFOug3bDSnTjqbs04cQJy9vZUmFiJ7JNK46isWbKymtmgD5RGjOO3Yrvt+L5anM/+bhSz67nMWZbnBFkMvh4ktxniS43zkLPiMTz/7glWlAUxhXUjo1EBjVE+6WotYOfdjPp69lHyPn1BHD6ICjYQkJBLV6p0hRsJ7pHLs2NM5+5zfkdYrEmtbTknyl7D49df4oWTb/701FP22lvU5Tmoa3FQWrWfpN3P5+LXneeG9uazIq8FnimTUtY/zyGUjiD2Ia7ln/ZvcM+NlFhd7CISn8sd/PMJFAzt3nHlnR5o/mzkzP2BNHUAAT+UmMtKXsyIjH2epm3qfH19jPe6KIvLWLeZ/r/2bp1/5nDXF9fhjRnHzo/dwVm97y92MUPt4+IIwH90bS3QyqaNO5oxzJnNyajc6t3FHWDDmzLJ3tn0uDw+GQCCwzw0N/H4/bndwDVXzl+Rxw2mLeWeTEWPAyAmPTOCjP0e2ySrY7nn3cM5f5+CsKiGvqAa/IZTYHglERw3lphf/RMVdt/DKmmzyyhvAEkFC93giel7I04/35LVp/2T+b1k43UBnB0ldonFMuI8PHzuzRfdkW3BHX856sQSwkjggidrMDFzGMBwJXYm1m/FuqcJVUUFZVR1+UySpZ9/K3XdOZfzA2DZbaXzTq+dywm3zd26XZHIw+YUfmHXRAVaNOaLq+OL2BTzwXSMNvgB1ZVsort760bLH23HYwWS1MvT60byYms8F1+eSVxfAW13HprKtRbUtOpRukUZMJjNxk4/hv/d127oPo99D1he/csddGczP94PZRGx8CNFhZmwWaKz3UuOqp6TMh9doxBENzlI/mIxEO0IICzFgNJnpe/lIPro5Zi+xe/ntk1VcfXMWK11gDrPRvWsInS0B6qrrKSz0UOc3knhKf/75r4FM6nOQDbx7AXedeD7PZu/ek2w+9n6WfH0r/Vr1OlvFmxf15Ya59YAVa4gHTz0YQ8KIjYslOiqa8E42zAY/3vpqKkoK2VRURYMtkTHX3M+jt5zHkNiWS7Vz3riSy59dQ7XHh9/tJK9ka7trjuhC95hQTCYbMSffx9v3duaF39/Bp8UN+Bqq2Ly5goYA0CmW7vFhmE0WOidNZeYHt5CmIad70YDzpxe58ap7mFsI9p4n8seH/8O9ZyfvpWD2sPKJ87junc1UlW6k0OUFWzTdE2MJS57Kcw+EMfPaf7Pwt1ycW8AY1oWe8ZE4Jv6dF0/4mj/d+xm/ZhdT44PQuJ4kREVy7C1v8OLU5Db4u9sR7xoeP2kMD/0CmByk9IPc9c6tBU3XWMJsfuqqq6kqL6NiixfsyUy89m7+Om0SQ7vta1PdnTyFc3nsL3fywtd51BgiGXXTi7wyfSLd23Jfr/bO+zU39L2AN8uBECvWRg8eH5jDYomPjSU6Mhx7iBljwEuD24Vz8yYKy+vwx6Rx+X2PcvdFx9PlwC/NIVP7ePiCMR8NBsGYM8vehYWF7fNYh7vRanR0ZerkcD54uhpPYjcunxTeZm9Igy1AfWk+ueXbioVAHWV5+dSZjsFosWP0VVPmath6rLGKwrw6GrsZsIaGYqwtwrX9PkWtk9x8DyF+Wyu+YEYGX/oUUxre542P57JkfebOubB2B6njzmD8WRcy+eRRpPaNbtMPfdczp3PnsgZe/nIVTmMCw86+lpvHt/ZyKiZshkYqNtduvaDswl3iJhewxgQ4xmrCbDVgcG0ht3D34dQNFXXkVoA13EqkybzzOTVa6XNqCg+HhTHyw438b0EFGfluynb5WXtcJ4b/Lp6xExI4Kameb97MYc6qWgqdW6hoBKs9lGTTvrIDM70nDOCxJ2y8+mYe85fWkpu57X1pMhLZJ5ozzkjm8osSGdm7GXdCOw3j8hnXkPPMp/yQVYC7EfCBt76RusPYc/TQWHDE2IF6rIOv4Inb+pI95zPmL11FRn4uzk25u3+7yU7i8LO44A9XcOHpoxnUgoUyQCergepd24ptvFXF5FaB1e7AbrBhs1oweCrIz3PuvuXOljI25ZZBSCSJPYyEtLdO3XbDhmPEFO6+cxXZf/2YzPwlzHrkLoy+h5h+Xj92X/LNjNHkp2xTFs7tozUaKti0sYHEnkZCbBYMNU5cW7Ye8tcUk9tYT7jBRCebmfryCmq2vUZ1pXnkNxhJs6hi2425L+fdfx0R383igzk/sDZrA5u2HbLG9WPkhPGcfe65nHrCUPrHH0ShnD+fp+67j9e+z6PGbyXx9L/w12tOUqF8QJFERgLlVpLOeZCHRpbzxRfzWbJ8Lbm5ZRQ2/Xa7g9TT/sAlU6cy6eQhLVoog9rHIyG489FgEDw5szRfh+tZBqjLzGHGLb9Rdloaz94YR2QbNYz+6hxWrs6hon7XosiIOSyRQcN64s1YSYbTjXf7K2AwEhqXQtogO4UrVpNfvW1hJwCjjcheQxnRJ7JF513tvEsWwoVvF/Pc6HyycjdRUljE5opaCIkiMi6WLvFdSejVi65h7aG59FKRu57MTaVsMXQmrmc/BvSIbOWGPIArq4z0/Ebq9jFn2BhiJnFALP3tdaSvqqbIvfePntFqIjopmrSeTQpTv5ey/Bo2bm6gtGgL5ZVePBjpHBVCrMNKTGwnuiR2Ir6Tj6LsGjaVNVJb58PrB6PFTHzfGFIT9n073V9Xz8asGgqdjVSVb8Hphs7RocR3CSWhZxjJXSzNfu/5awvJ3LCRzTmzefCW51lZC/ZJL7L27UuIadWhoH4qlr/LS3M30fWEP3DBCRFUb8qj0FlKacFm8gsKcFZvodFvoVN4FI7kgaQkJZLcJ7lV3uPe0g0sX19Adf3e56MbzaFE9kglrbeR/FVryCqv27kgz65MNuxxfUgbkkAL569BzV+VxYLX7uOWR/5HboON6D7HcuYVN3L7VRNJ2qVidhesYWVGCXW7Jt4GM/b4FNL6mclbtY6Cml3aaZON6OShHBNdweo1u7f9Rms4iYNG0D+uPbSZbWjXnuWQ3/GfX95msjeXnPzNlBRspqjagzXcQZeuDuLiE+jZM4HIA2aWHgoWvclTz7zC7IXrKNlixTHuBh5/9AbOGKwenAMKVPPrJy/z8YZwRlxwIRO6NZCfX4iztISignwKC5xUuhtpNFqIiE6ge0pfknv0ok9y94N4bQ6f2sfDF4z5aDAIzpxZ9mZ/PcsdsljG52Hjulo8XSPpF3e0f5SbZ/cPvpNXztp2wNtAXYMXTDZsNjNGbcPVpvyNPhoa/PgxYLaZsFmO7Avib/BS52Xruc2HeW6fk/mPXc7V//qRskAkpz21mPevSGz9i6zXTVlFHaFRsbutCOxvqKPW7aausRF/wIjFYiM0PLJ9rRosR5y3PJMFs57g3qffJb3ciL1rP4ZPns7Mf5xP0lE2RLNVNS2W0z/ism3LS/gb6qhr9GO0hBJqO/gWwvndQ1x7/3ssXbuJar+dfhNv5a7pUzljSFdCda06KP4tFZS6zUTGhmPb8Zz58dbVUuuuo8Hrx28wYrN1xh5upxkvj0iHpZy54ziqhmEDYLLSa0j7WiUv6JlthJp1f769MFpMhFpaLqM32szYD/vl9uBav5DP3nuVF95ZTpkX7GlXcN2Z3drmbrTZTqxjz72VjbZQwm2hhLdBSNJ2zDH9GHfpdJ7pkcTLz73Jx0s38POyHKpbfYqAbGe0hR5Su1OXv4afV2+iPjaVsy7/M9deNJHh/WJVKDeDsVM08XsMVzdiDg0nMlSto0izKGfuUDpmsSwibcxD+uu3cf9by/ktO4uNFQ3Ye5/F7ff/iVEa7SHthDk6mRETpxGdNIYz1+Xi6TFavcpByDH+Dp5/7hz8Cf3pP2AAfeJbcGVmERE5qqhYFpEW0MCmpfOZv6xg6wqQk27ixmsv4tRRR99cMWnnQmJJPiaWHilp+GyhuwxBlWARmngsp583BEJCOdxZIyIiIrtSsSwiLSCU4Vc9wN+6ZWPrPZxRw4cwqG88oerukXbKHBqqC2LQMmIO1W04ERE58jrmAl/SDB4yP3yUp+dk4GrwULxuActzGwAjXYefSmpXK/aIXpxyzd1cPmzP+Z4i++Sro6LcjTEsmkhVySJHL18Bc5/8Fx+vcbLFU8aGH5eQVQMYYxl0UhpJnex06j6KK26/lhPj2jpYEZF9Uc7cUR19C3xJM1Sw9H9v8/EXThp8/l22W/BTtPJrigxGzLZwnAOu4PJh/doyUAk2plCiHertETnq1a1l7hvv81lhHY3+Xa4z/jLWffc16w1mLBG/0e1sFcsi0p4pZz4aqVg+6kUw/KzL+b0ti4p6D/iaHDaBNbw3Y0/s0ibRiYhIkAsZyGmXXkLD+hJqPXs5brLSudtwTuvd6pGJiDSDcuajkYZhC96aEgpKa/B4/dD03WAAozWM2ISuRGrfWRERaTY/7tJCSlx1eP17OWwwYu4UTUJCtBZYE5F2TTlzx7S/YdgqlkVEREREROSotL9iWavuiIiIiIiIiDShYllERERERESkCRXLIiIiIiIiIk2oWBYREREREZGjjsGw/5Ul91ssH+iHRURERERERILRYRfLKphFRERERESkozmsYvlgTiAiIiIiIiISbA67WDYaNa1ZREREREREOhaTybTf4weshA90AhEREREREZFgc9jFstlsPmLBiIiIiIiIiLQ1g8FwwFHUBzUMW73LIiIiIiIi0lGYzebDn7O8/UQiIiIiIiIiHYHFYjng9xxUsWyxWLQqtoiIiIiIiAQ9k8l0UAtZH1SxbDAYDqryFhEREREREWnPDrYz+KD3hbJardpGSkRERERERIKW2Ww+6GnGB139GgwGrFbrIQclIiIiIiIi0la217QHO8W4WV3FZrNZw7FFREREREQk6Fgslmbt9NSsYnl7Ja7VsUVERERERCRYmM3mZo+UbvYkZKPRiM1m097LIiIiIiIi0u6ZzWZsNluzd3g6pBW7VDCLiIiIiIhIe7e9UD6UxaoPeXlrk8mEzWbTkGwRERERERFpdw6nUAYwBAKBwOEE4Pf78Xg8NDY2Hs5pRERERERERA6bwWDAYrFgsVgOa/vjwy6WYWvB7PP5aGxsxOfzHe7pRERERERERJpt+w5OJpOp2XOUmzoixTJAIBDA7/fj9Xrxer34/f4jcVoRERERERGR/TKZTJjNZsxm82H1Ju/qiBXL220vmn0+346vI/wrRERERERE5ChnMBh2FMlGoxGj0XjYvcm7nf9IF8vbBQKBHV9+v3/H1/b/i4iIiIiIiBwMg8Gw42t7Yby9ON7+dcR/Z0sVy7va/iu2F8+7PiYiIiIiIiKyP9uL4V0L45YokHf7na1RLIuIiIiIiIgEkyMz81lERERERESkA1GxLCIiIiIiItKEimURERERERGRJlQsi4iIiIiIiDTx/+Wbfzo4hPMAAAAAAElFTkSuQmCC;" vertex="1" parent="1">
          <mxGeometry x="620" y="160" width="520" height="125" as="geometry" />
        </mxCell>
        <mxCell id="KGGsZ-ZlMWvUG5d2Pkvt-3" value="" style="shape=image;imageAspect=0;aspect=fixed;verticalLabelPosition=bottom;verticalAlign=top;image=data:image/png,iVBORw0KGgoAAAANSUhEUgAAA2cAAABgCAYAAACZpgpAAAAABHNCSVQICAgIfAhkiAAAABl0RVh0U29mdHdhcmUAZ25vbWUtc2NyZWVuc2hvdO8Dvz4AAAAtdEVYdENyZWF0aW9uIFRpbWUARnJpIDA0IE9jdCAyMDI0IDExOjMxOjA2IEFNIENTVJEcRWoAACAASURBVHic7d15eFNV+sDxb+7N1jbd0r2UlgIFAZcBVNwQHMEFdcQNxtHBfZv5uY7jrriNuw6O+6ijIu6DoiiuuICiRaHDvrRQCl1S2qZNmy65yb35/dGFrUBbSNPS9/M8PoYmuTm5Sc497znvOccUDAaDCCGEEEIIIYQIKyXcBRBCCCGEEEIIIcGZEEIIIYQQQvQI5u54kWAwiGRPCiGEEEIIIXo6k8m0w/+7034NzgzD2OU/QAIzIYQQQgghRK9iMpkwmUyoqoqiKG3/hfQ198eCIIFAgEAggK7rwLZgTIIyIYQQQgghRG/WGqQBKIqC2WzGbDaHZGRtn4Izv9+P3+9vS1uUYEwIIYQQQghxIGsN1iwWC2azeb+OpnUpOAsEAmiahmEYEpAJIYQQQggh+pzWIM1qtWKxWPbPMTsbnGmaht/vb5tPJoQQQgghhBB9VesomsVi2edRtA4HZ4ZhoGkagUBARsuEEEIIIYQQooXJZEJRFOx2+z4FaB0KzgzDwOfzoeu6BGZCCCGEEEII0Y7WAE1V1a49f28PaA3MZMRMCCGEEEIIIXbPMAyampraVrHvrL0GZ62pjEIIIYQQQggh9qx1cKsra3TsMTiTwEwIIYQQQgghOkfXdTRN6/TzdhuctS6XL6mMQgghhBBCCNE5rfFUZ7QbnAWDQXw+nwRmQgghhBBCCNEFwWCwbW/ojmo3OJN9zIQQQgghhBBi37QOenXULsFZa4QnhBBCCCGEEGLf6Lre4dUbdwnO/H6/pDMKIYQQQgghxH4QDAbx+/0deuwuwZmsziiEEEIIIYQQ+09H94zeITgzDKPLG6YJIYQQQgghhNhVMBjsUJy1Q3AmgZkQQgghhBBC7H8dyVCU4EwIIYQQQgghQkxGzoQQQgghhBCiBzAMY6/zznaZcyaEEEIIIYQQYv/bW7zVFpzJ8vlCCCGEEEIIETodHjmT4EwIIYQQQgghQqdTaY1CCCGEEEIIIcJDgjMhhBBCCCGE6AEkOBNCCCGEEEKIHkCCMyGEEEIIIYToAXpmcKbXM/9fy3jh+8b9e1xPBbMeW877q/3797hCCCFw583hhQem8/jH+WjhLozovM3zeeGBB/nXu7m45AMUQoiwMIe7AO2qq+S9fxfwXYbCmGMOYZR1/xx21TsrePCFGg6JG8iU4Zb9c1AhhOjrdBcLXnyQh2Z+z4byWvRMheNOn87RargLJjoj/7MXeOrV3whGfsin35zPrfdcz4mZ++kCLIQQokN65siZI4Gjhgcp/20jb363n7rvGsv5YFYlpQ0RjD4yYv8cUwgh+rrGfN6/4wqunzGb3LWbKW+M5bDTTmBwz7y6iD3od8xExqVqbC0u4NdPX+CmK2/g1TxvuIslhBB9iinYsti+YRjU19eHuzwtgpTP/Ymx04oJTjqchW8NJnUfj+j+bBHjLyqictwofnpnKNnSGShEn2K4PFR9XIV7eQM+t4GSFIHj8HiSTncS5ZRIoku0IubcczV3vLWYYo8fa+aJXH//PVw4bhhZCfYe2vsndkuroXjtL3zw5J08/lE+XnMUaSPP5O4ZT3DhIY5wl66XMvCvdlP+aTV1+Y34GxUs/SJxjE0g5aRYrNIWEaLPsdvtWCy7z+BT77333nuheUM0v7+nzMUyEdnPTsnnG1mwwkfSKdkclWTah+PV8+7deXxQYOaMuw7nzwdbpNEgRJ+hU//xRtbfuoXyzz3ULWugMb+RpnUNeBfX4J5fiz89hphsM/tSy/Q9XnKfuoobXlnEFo8f69ApPPDMP7ho3FD6xVjkXPZGqp2YpP4MO+IIhmgr+TZvM27XRvLW1jPspBMZGBXuAvYyWhOVz6wn/yEXVd/XUb+qgcb8JhrXeKn7qZqqJRrqwTE4pHNIiD7FbDajqrvP+++xNYLiSGDaVCeRtTW8/dZW9iWxQsvbwMyf/Kg5mVz6ezsyDUL0XQauFeUsWFyHVw93WbqDQf3Mday500X1kkaayg2UrChixsUQkRrEX9pEfW4VJTevoeDjJoxwF7cXcX//JPf/+0c2e/yQeiK3PXkvfzoqm8SIHntZER2h2IjrP4rTbnmKB8/OwRqop3Txm9zz8BxcfaLO2E/0Jsqnr6HgmSpqVzeh1QWxHBxD3LFRWCIMtKJG6j4vZeNV6yhdJzWPEGKbHjpyBqAQnxFk2fslLF4f4HdTsxjapV47Pz/+awnP/hRg9F9G87cTIjFLl67oo7QlK7jw6jW8/3EpG9P6ccpBB/bCOP7vC1lzRzl1W3SC8VGkPDCUwdenkXJaEol/SCK+n5+6pfVoLo3G5Q1weCJx6eEOLjSKFs3m0wVFqFk5JNvDXJz2uOfzyF/vY06BF13NYvLD/+b2UwYSf6CnaHlWMW/2V6zyJjOwv+MA7uhTsDiSGXxYOtU/fMpSVz1VG9ZSM+gMJh0k6Y17p+N5Zi3rX/TgcwdRhieS9dRQsi9OIfHURJL/EE8k9XiW+vCXNeFdZxBxcjyRYZ8O3wvqnl5BzqPYs72NnPXM1RpbWNKzuOS0Vcyd6eK1j+s44/Lozh/EVcwbc+rxxacw9dw47BKYiT6saYOb39bUUR80EbGmESaHvTUQOt5qtjxSSm2xDhF2Uh4ZxsBJkdhiWoOvCCJSB2ONh1W3VKJtrKH48RKcMzOJDmeQ4fqQx266n/kelSHlqXxy06gwFqY9Gqvefpo3lrnxBSF10o3cflYOzgM9MEMj98W/cevrmwjG/4Lx8bOcnRTuMoWSSnTWBK6/fRo/XPkK+Z71fPT0q/x5wp2Mkfhsj4zVJRS+VIPPE4RMJwOeHkza7+xYbC0PCNqx3TYMs2kl6//ThG9RKUX/jif+tvjwBvw9vu7pJeQ8in0U7i7iPVOsHHPxAEbZAiyaVcjSLizcmP/xBr4sC5I1KYez+x+4/ZxCdERQM9CDAEH82oGdStP44WbKfgsQDIJ96kAGnOHYLjBrpsTbiTl3IFlnWMAw8H9fwuYvw7zBU9EKcvOLKS0pYkle/j6ldIeE5wf+8/ovuP2AYwx/vv4chkT37EvJ/lHLxv8to6iklM3rlrKyJNzl6QamSPpPvIYrxzkBnboVb/LyF65wl6qH06h4voTaUgNUC85bBpI+ervADMCkYE5zkHTzQJKGAloA7xubcRWGq8wtenrd01vIeRT7qEePnAFEHjyIqccVcOsPhTz+D5XjkzvxZD3Ar++4qTNHc/nFqcRJbCZE36DXUf6WB78GxMaSdk0CEbtJizbFRJLyl2RK55VQ3+DDPWsrTWdkELZMFJ8PX7D5pl/z0dOm+bi/+4BPNjYB4Bx/EZf8LvYATu/bno6/seXTCPrx9aRZACGkRA5k6sWn8uzXb1Gkufj2vc8oOvcyssJdsJ5q81Zcn/swDGBUMlmTozDvpqWl9kug/8WxVNzuwSjz4Pq4jn43dCFDaH/p4XVPryHnUeyjHh+cYXVw1gWp/PPbYr57fR2/dSZ1JhjEW63jODqbaYeF+K025jP/g29Y5faDYsF56CSmjE2g6Ic5fL5wJUV1NrIOHcOJp09ihBNoLCJ3/kKWrs6noAqyDj2RKecdT2qIU4O8q+cxZ2EB7sZtf7OkjuGs88aQqmq48hbyy4r15BcW4aqD+LQshow+ngnHjOgxaUuaaynzvsqljCzGnDqJUWFILfKuLmbOQg/u1sYaKpbURM46O4VUq4F73VYWLNzKysImqhvBEmsna0QKk05JIasDKUGay803n5extKCWzcU+qhqDoJqJjjWTmhnDwSOTmTA+idQ9ZSXqjSz9ZBM/Fm1rRTbkeWkdF6r6bSOPzyjFtssTt38vHT4lPcuqCrYubx4ZVMYkkZKz5/DBfFgqiYeUUL8Y9F+2UlmYQUZ2dxS0t/GycN58KgKA6mTs5JNJ78B3RNu8gPfn/q95tC3CyeCxk5mUWcWCT+exYEUB1Woqw0efyGmnjyJVbf6Nf/N9LqvWFVGlJ5AzdgpTJ2YR9my6YLgLoFH0/Ry+We6ivm3g24Lzd5OYMj4Lq+5m1cIF5K3bzKbNRVTjIDU9h1HHTGDsyFS69nNWiTtuMuMy3mJmkYF78Tx+KLmMaf3225vquEY3Ra66rj3XkUBWUui/QY1fb6W2qvl21GmpRMfsYS6FSSXqjCSiH/Hg8RjUz6mg7tpoovtGb0c7vKz69D3mF9QDFqIyRnHaH0ZiXfcNH32Vy+oyH/HZB3P0yZM5cbAD8JK/8Bty81aycrMXR+YoJp0/JSxtgp7mQGjr9WU9PzjDRPLvB3FWzhZeyPdzyLSDOWtwByaO6fV8/XwB8w0r507LZsCuLdD9yv31M9z20OdU+4NgMmF2fsWikUGW/LKWqpp6GnUTEZ9+yPtfF/DQLZnMf/ifzF1RTp23gYYARHzyCV+vf4I37jsRZ8hK6WLuk/fw4IIaAttltJkiB1BmvZ2sJS8z68s1VHgbaGhswqeDxWonMuY1Xhr+ey654RYuPDJ0peuQkjncfcWDfLbRgw87sR/kcv9/7mNSt1bGjcx9cikPLgjsdB634I4ZSdZPq3ntGy/l1X68jTp+AxSzij1qM+/OTufWR0cxKXP3R9cKNnLrdWv4ZoOPugadJp+B3wgCCqrZhC1CJSq6kBcGxDP5ykO55vTo9hutywq4Z3oBa+u3tSiNJn/bioTVv27mhdVKu7nNJlsRZemncP/xvTNdrWmxh8aG5tsR45zY9lbTWaNIOM5O0eIm8DRQ8z8/GdkH9mIpXaItZ9HiqubvUOSRnDQuoQO58Ro/v3IHD77jav69KGYiPvmOeVEF/LSylOq6BvwmG44P32Peske5/7ilPPqP98gr81Bf34Q/aCHy069Y4XmFGef28fEa7w88d/u9fFyhtaQnA5gwJ6/D+MfhbH5zFp/kFVNb30RTUyN+VGz2SKJfe5Vh46fwl+su4/jMLrS8oo/jpKNSmVnkwvAs4btfvUzr172hsnfJC9x0x1us8HRxHEKNIvu0e3j2juNDeI314/mpAd0ArHbifh+119+HqZ8T5wjwLAIj34OnDKIzQlbAnq1wNg9Nf4zcGh0wodoS+Wb+CKrzcinc6sGrBbFERPHBBz9y3ZNXYnvnfp6ZX4Cnzkt9k45q/4R5P7v454vXMSY23G8mnA6Atl4f1wuCM1Bik5g2xcmbD1Sz1YjhzGkpe+9BXbWS9x4GBvbjgokRIU+7iU7rT2qkiQpXNW6vBpU1fLTZoL7BD7Gp5CRoFBUWUfnVv7h+rZ2qTcXU+AysSTlkOcrIL9lA9ZtPM2vqiVw3PFSljKJ/ZhpR5krKvBo0evFqgKmamXffhK22lHKPD8PqIDUzi3itiKLN5bgryyktKaOkcAP59zzBnadmdbEHdt+t+u+/efuX9XgCzf8ur3iNVz6+lEmXd2ejzUz/TBtRZo0yrw6NRst51Hj1zl+xVtbj8hgYqoKzXwQ5CVC6sR5XsY+Kio3c82AcI/49cDdpQQZLZq3i/V+81AUA1ULOmCRyYk0Q0PG6G1i/rp7SKh+lxQ2UbfZS4hnDYxfE7fqZJESRFWOwsjrQNlq2fU2tB3WatPYaOioOZySZyb119Ryd2qX1BIOAaiX6sIgO7LmlEDnSgao2oesB6pbWw1lxoS9qb1Oax6ry5u+QdcAhHJrUkeDdTHJWFvHmYorcbryNQPVnzKaJes3AkZpDGkXkb67E/Z+buGROHZs2VtJkWHFmZxHnzqdoQzUfPD2T80+7mzEH8Bo2e2VNpH//CIJba2jQQPN60XSgajYP3fgFTa7y5tH8CCdZ2ZngyqeovIbKchelrmLWrVnP7U89ypShnazBTVEcNnII1vdcaEYNK5dvhMmHhuQt7s7Wn+fySe5yGro8VVahQP+O/FuPZ0yoGgR6PbXLWi5OUVFE53Tg96FGEHOwFRZpUF9P7QodMvro0FlsBgMSrPy0tQyvR0OjgvlzCvE3NKBbnGRlR1NVUERhxcc8ds1vmEoLKa31gyOVnFSNooJiVs9/kWfnnsmYC/tyR07vb+v1db0iOMNkZsi5Aznhhd/44pstLL2nP2fscaTET+4XpaxpUhh13mCOjgt9I9Ny8EXMeOsU6hc+zCk3f4rX8FHfYCVr4l08fNupDLJv4uUrLuGV1VvZsA5QnYy6/H4euOQIEmvn8ffz7mNB1S988UMR1w0PVaUSxairZzDrnHp8usHSGZO5YbYbgn7cWwohIosT/3odl51xBFnxdsxGE54ty/n6rad54dN8Std8z2vT7yY54xX+ekh4frL1lRVtgRkA/hoqqpq6uRRmRl19NLPOCeDTYemMb7lhth+CQSo31oGikDNxMFdfNoAxWRbsFvC5SvnHVcuYV+Kn4PMCPl03kL8Obe/YQeqqfM2BGUByKjc9fRjH2UxAkIBfp6HSy8IPVjHjNTeuwmo+eGwZo8aMZdrgnRoC6Rnc/mo8VzUF20bLvPN+ZfLDbjQg69wjePPK9gMQ1Wql38DeGpxpNBa2nECzBXu/jr0Pc4Ydswl0QNvQiJ84Qjl2plUUke/adaq4b1PVtmC6zsWqFavYpRM4IoGs7FQc3d2G27yRTS2FUwYMZUCHBlYVBp71EK+N8bD02Qu4+u0i0BqoV1MZc939/GPqYURXzOa68x8j113I2mogagRT7n2A647rh/7TfUy9ZR6udZ/z1eq7GTM6hO8PQPfiKiiiaud1YQLlFLWlCGlU5S9llX3nlAwrjn5ZZIUqL8gyjPMfm8X4Oh+6P5+ZV1zGK/mA4aG00IM1dQyX3X4Nk8cNJjHCCloNlWsW8Obzz/N+Xjkbfnmfe29PI+u1Wzo9spCek02iuoBS3aC0cBMah3Zrwy39hAs4/0Q/eS4vvi4832ZNZfiUUxkeymSAukaaylpuJ9qJ6FBHggl7lg3QwAjQsEEDQtsD0WPrnrij+L/n32Vq+efceeb9/KAZNNU34Bg6mbsevJlxmTrLnpjG1R8UUbZuPQStpI7/O4/cNZlh0aXMvPoCnssrZeGXS3BfmBXCEdJmPfY8HgBtvb6udwRngKV/fy44ZRVz3yrd+7L6FWW88ZGXpvgU/jw1nsjuaGNGJDNoWDIUO9tG6axDp/HAo5czcaATmymH045M5JXVpQCknnQnT91yDoelRqEGghw7+GEW/K+J9es3QcimWitEpgxiWErzvzyJ2zU9rVlMvv8V7ps8nPSkaGwtFzAjJ4fBw4cxKOJqrns3n5r1X/H8o+9y+hvTyApD596IMyYz5vVHyfW0/CHpeKae2t09ZCYiU2K2O4/bfcGCCqMuPYKnr01jYLqdaGvLfQMjmXbCGubN0jBqa8hdpvHXdnuvFcacP5TJyzeQ1xDB2EuH8och0URv/x0eFE1mtoNU/wKufKOeuqJyXptdxR9vTdqxsWSxkjHUyvYZMp4VlrY0G3tyDL877ABMXdAD+N0tt00WzPEdfF6MGbMKvgAEa/wEIGTBmXfh41w+/UM21u06cmk0uKhs+bP2v1f5v0v/u2tFrVhIP+lOXnxgEqkhKmN7tJpaqlriXkdyIh1dusDmzOIgJ9QmbVtmJfXMu5hx3R8YlhyJop3KMQNmkLtGg6CDMdc9yb1/PIKMGAtG3EkcfMc8XL4i1m7wwugQptPp+bx/w/U8vbgS/84jNEE/1SUtTS69lC8eupKlu2y4bUKNG8q0p17hmlA0akx2EgcMIxEgYOLr7dvwqSdy2/OPc8HhGSTH2VuuQwb64CEMGjGIhGuv5YUldRQvfJFHXp/Ae9eP6lRwZUlMwGmCUsDvqaQWmsvRTexD/sAtT46hzhfo0mbximLDkZS+Y126v3n8+Fs71uItu10IZGdm57aLaaAysIdH7rseXfcoUaQNHkFa0mpiW39ajlFc+fiDXHBMJrFWg7QJB+P4oAhvEMg+mwceu4ZJQxKxK0OYOCad5/I2UbNhFVv0s3GGsI3So8/jAdDW6+t6TXCGamPcRZmMeG8di94pZOm0Qxm1mytL0Wf5fFkcJHXKQE7PDNe3ysoh51zGSYOc2EwAdhJSnUApqFlMvHhKc2AGYE4lNbn5F1JXV4cG3T6U7JxwI7f/8XCyY3c8X4o1isTMUZx523QW/XYhMwsaKPnuJWb+9kfuHtP9PSpRh13BjFeS+XBeHmVqGiNP+xPnHNSDdngcmsnfb8rkkH7mHecamK0MyYnAioYW1Ckua6T9T9lE7OghPPhyf+p0hfi0qF0bE4pKbGosp1yQzpB38lmp6az/xU0lSaSH7I31IkGdYFu3pakDKY1tTyTY+mBND+naD1uXf8PCpauo20sr0/CWUbCurN37NgR/YdO9k0jtxirO8De1zXWKsEV2fS8WNYezLj2rOTADsKaRmqTAGsB5Ahdd2ByYASiJacTZAJ+fOm8jhHJZkMBGFn75Mytce5nXFPTh3rwed3v3KaX8tKqWaw7pztDFwZgr7uLS4wfvNJlfQY10kjH8VG6afjG5U59laWMlP732Jj9cPIqJnRk9s0agqkAA8Ado3Nvj9zdLNGkDoknr7tftDE3fbmW+IKYOVj7B7Wopo91U8/2nt9U9jqP/zEXHZBJrBVCIS00hQgWvbmXEmVdw+pBE7AqAjdTEBKxsQvPWUhvixXt623ls1Vvaen1d7wnOMBF12EAuPDaf23MLmbVgGKMmtNOvrbn5cFYVVWoUV01LJylcsZmazpHHDdlh1M7Wuht45MEcO2b75adVWu8KGkaXegX3jZXfnXgyQ2J3d7JUogZM4KpzRvLuo3lo3rV88fUK7g55flE7bMkMO2Eq1xwyCZ/JRnRCIjE9qN7ImZDNCenmdhutUVHb/u7f08QJm43MIdulS2ka+avc5G/wsrmknqoqP26PH191DRUtF6D6rY24dUiXHi7AhNIWrwfQ66BD+S0NOkZru8ja/kIp+0v6yVdwzZJIfi7ZtnpmG28ReStczX935jBm6K6Ft0akMeLMs0ObotUOq92MBWgCAk31XT9Q3GEcPyp6u3OsEtHy3bUOO5Zj07er2xUVe8uVKmiEuHa0HMn5N1xExRerqNold07DvS6PfDeAldRDRraz8qoVR/Z4Lj62m1cjsA5k/MmH7n6VNSWSlKMvY+rRr7P0Wy9NRV/x+a8aEyd0ovIMBGjbGtFsZTc7U4SUuyCPfFc7v5kOsEakknNIiDdLt6vbrusNOroOHZnwbtRtGy1T7KFN9elddY+VYcccw/Zr2CiqGbsJUBM58uhDidquHBFWtblOMYIhb0f1rvPY9qq9p63Xx/Wi4AywxXD2Bek8vbCEuW9t5pYJg3YZDvb+tJF3V+pEHpHNtNGW8O2ybU4nM33H4LGtLPH9yQrjVia7UohPTt3zNUSJ5KATjiL7iTzW6X42rViFm9Ehz+lutyjWGBLTY8Lwyns3cIRzt2m0irLdHXu9chi4lmxhzsfFfPNrHcWVfhoadBqbdPyBIAF/EMMwaGy5pht6cLvV2/o41Yal9Yupa/jK6FCmsOHytaUkKQnWkM43s2efwtX3jeJ8n77rV+G3xzjjmvco1cF68Pk8NuPMXcaKFMWGIzGNPa3SHQqKM4kkFep0qC3fipcujmMlZJC204B3a/2opKWRvFPFrXTX+1TiGf2nW3nkZC/+XX5PlXz8lzO4/xcN1HQm3Pw8Nx6yywFQI+JJT+vmlT6VJNKT9vKatgFMHDuMu7/9FU0vZcXyQpjQ7sTXdmmukuYtFABLYlK37wPo/nY6l9z9GcUN7fxmOkBRbSSPvY0X/zk5dHu0xVuxtH53y300BejQsviNxdua95ak0PY29q66RyG5X8YubRMFwOwkrd+Ocz67rZ6gt53HtlftVW29vqx3BWcopEwczFnZxbw0fwMfrR/ENUO2v7+RL98qpkCzcMr5AxgSzmw3kwXL7upYmwVLD1trQVH2fgWx9MskyQzrdKgvL8WlE9Kc7t5HwbE/NqhxV/Kfh1cy67tatlQ04fbobfNfrE4rWWlROJ1mHGYfeQvrcMsOlzsy2YjMscBCPwQ06gs0OGrvDZ6mdY1tAa51aFRoV3hVHST2d7Q/Z6c0tq1+UKKSGTg4Z9fJ5OGSNZj+VtjYCI35BazR4YiunCjb7s+vxRYR4uUQ9swWl8aAdtfJiSG5dY6ZyUZ8Rg45g7uzZHuiou61J1IlrX8/FH4FdEpcFUDHg7PSdflUBwGsZA/o3/3B2brFLF65nvp96ITaqCynUp8cujk0kVFEDgT3SsDTSH0xJA3a25M0GvJbgjPVQuTQEO/708vqHrt1N50OJjsRIT5Ve9TLzmMraev1Dr0sOAMlLolp58bx6iM1zHy7nMvuTdk2c6dgE7O+bsKf2Z8LTnOEtOe7Q3YXgPWwwAwAvQMz3fwQaCm72TBh6p1bYIWQCWVfz0mjmxf/lss/v/ZSXmtgWC0MH5/OhONSGDkyjuxEM3argsVqQvUU8X8nr+RHCc52YiJ6ZBQKNRjBIPWLPegXJu0l2NLw/NyyMZqq4vhdZDeUsxdKHs2oAfDDGjDKlvBbMRzRlWGIPVQeiim0KaUHJj8dmapkBLblappMnbn8u1m6ZF3zfCo1kUNHDen2zyjjtBu4dWM/finadXW8DolIZeTkKQwNZcGVCGIOVWGlDv4GPL9qMGgv11WvB8+y1l6hKKK7O1e5h9v9aJjSrSNlBwxp6/UKvS44w2RmyB8HcvxLS/nhww18dV0KpzsBDPI+KOTnmiAjL83heKf8ajujuqIS9rKchLdgLYUtHXy2jGzS5RTvd665q3j281rKGsCancJ194xgykgHzngrMdFm7ObtTnqVPTQrkeoa+ctr8SfEMjwz7F0cXWI9Nh5HRA21jeD/0U2NN4mEPeXfVbip/LVleDIuhvgjel/V2C3MIxh7dBb/XFME9f/jm++LuOaivryfUA+hV1DpZm9VOGvXbWyZH2OlX/9OLB9UsZDPF9U23447jGNHd39aij1j6nLRHQAAFMxJREFUHBf9bTiTm7rYG6XYiElMxhHS65aZ2LExqO9Vo+sG3q/daH9M3WNTWM+tpKaypYi/i8e5x22ChNg30tbrHXplPGzJzOTSkyPwbyll1ty65j96SnnzgzoaYhL54/kJIa6ADzQa/1u0uP2Vx9q4+e6T76g0AKyMPu7oDi+jHQqa24XL3ZVp4T2ZwcqFWyluAFQLJ107mr9MSuaggVEkx1t2DMxCaPXLP/HnK3O5+OJfeX9zJ5+se3GVuDvUix9KpqxkEo9tqd6Kqij7Ys/flfqPStsaSJbxKSRKA2k37Bx1xsTmtDCjhp9nf0q+jNyGX2ALi38u2vNjvLnM/WpT8/wY6xCOP67j6x66vn6HbyuaOy+cYyczoTsXomyl2IlP7c+AAQO69l9mGs7I0OdmWSekEN9Sf/i/L6O8YE+PbmLrrGo0P4BC9NnJbQvjCLH/9b62Xl/VK4MzVDvjp2UyXPWz4M1C8jRwfV7A3E0GqRMGMXmg1G6dY+Be8Apvrdh9A9b9/b945vOS5rSWpJM4e1J6eL48WhHzHryEM848h3POPJurHpvP3la97j2CBJpaJhcbQSzOSBIj9hCQuRo7/d4tDktbum+d19/OIxpZ+t1WVq+rZe1yNwW1HT+2e/GL/N85p3HOlDM56ZyreOLroi6tqrZfWOykXJSIVQX8GtXPbcG9uytSSTlFr3jRDSAigqSLE9v2fgkLm2NbT3tEdPjTs3fiOOoCph5mBQy8S2bx+vddTDPrdazYIrbdju5JH0ywjl/enrlt/8ddeMl75VHez29Oa3QccS7nDOvgG2jM5dVXF1BlAGoWZ144iaTe2XLoFqakRNLPi2i+PlbVUfKv8t3Wg/5vt7BlvgZBIDuR9DPt4Z310MPrnl6jx57HXtTW6+N66Tk34Rg9kClHKXhXFvHud+V8NKuCCiWKsy7MIEUykjrNqFrMS3c/ynzXzvdoFH37BDff/jp5bh1UB2Muvo4z+4cnAHbNe4x7XvmM3GUrWLHsJz5+cTpPf7XnfqDeQ2HoqLjmSj2os+j11Sx0tb8umVbi4sUnNrG+k/uV2gc6yG65alTklpO3U7vau6SAd1rT+6JjOKijnetaHq/d9yQfLshjxYplLF3wMc/feiPPLwlXeGbCdmIW/U9qvizqK1xs/IeLxp2L4/GwZfomqgqa37P1rEz6HxnmCiRnPCcd6sQam8OkiYd3+8ILexV1MBdfeXrz3jze9bz19OvkdfumV+EQw+iJE8hyWEkdfRLj97rQQ3cy8K54jbsemkPRzp+F7ib3pb9z4ws/4tKAiOGcf/00BndoMQWN1W//kzeXeTEA59gruPzY2N7acOgeipnYqzJJzAYMg6ZPNpH/Wh0796MZ610UPFhOowdQLcRdm0VCcphTfnp63dNb9ODz2Fvaen2deu+9994LEAwG8fvb60nvocxWsqjiv3OrWbfOw8pV9dQdNpgZf+9HSji6KTQXuZ/O4asF3/H1r8X4TTZiEyPxNUSQlZ2Ad8U8/jv7Y75fXwtmB4mxCg2kkZOmk//tR8z+5DOWlwcxImJItfrwxw4kY7d7UewfRV8/wztLWvYqCgaoK13L4t/WUOZtpLGyiLzvP+b9/zzPjJfn8HNBFU1BK1mn3ceMu09lsCM8DdiVb97Ov36obFm6Noi/oRJt0NlcevzOmyqElra5nLlfuFj0ayW//ODit83NJbLFWwiWVbNqk5+I/g4SVI3VXxUyd2Elixe5+G61nyBgiTUTUVfHqvUN6InRpDlMgAlHPwslX2xhmRsaXbX88ksVRVt9uCsacJXWsnxxKZ++s45Hn9rA3MUNeFqDDd2P1uSneF01y9c2YOsXS1I7S96ZYs0Uf7WJRWVBjGovywubMPwB3JtrWPTZeh5/vIifNgcIBBWGXzySe06PpkPb7lR+zT/v+4A1TS3/Nvw0VJdQZD2CC08a2O2bqgNgtRA5TKXxhxoaKnT8G+rwrPODQ0HR/TQs3sqWR4oo+7KBgA+UkankPNKfuJQwNz1tyYw45iTOOu9cTjsymzh7T2sKm3FkDUBd8TnzN9TS6FpJiX0Mpx2dsfvPuSKPeZ/O5/vv5/HzxgawxJAWq1OrpJGTopP/9QfM/uRLllcGUSOdONV6NOdAMuzF5M55j9mf/UaxZmCLTyHSpxGRmUVCt3+pFKKzRzP+tHOZctbvGZHqoJsyjdtnlLPo9ddYUN7yb72BrQVL+HXFFmqavFSVLGfhZ3OY9dwMnvvvD6wtb8BQnYy96RkemTqC2A5cJ7UVL/G3W94gr8pPMHYkf3nqIc4aHBHalUwPAEp0BFFpGu7vvAQ8AXzL6qjbGkSJUcHbSO2XJRQ+UIJ7mR9DV7CfO5CDbnRi31OmRHcIe92jUfTjXD795nvmz19GuWFgc6ZiafQTOyCDyK25zJ09h08WbaLRpOJIiiHQYCZrUBLa6nm8M/sz5q9xE1SjiYtX8RsJ5KSHcNP63Qn7edxRb2zrHejMZjOquvua1BQMBoMAhmFQX78Pm4qGgeEu5m8TF/JaoQkTZk544mTeuzQ8Q8jeeTcx8dbPcXurKa9qwDDZiE1OJCbmUG54/f+ovOmv/GdNCeW1/ubgLDkeR8Z5PPevbP7950dYsKWE6iYgIp40ZzTOCffz2TNnh3RviR/+nsMZL5UDVrIOGUzd6tW4TZHEJyYQa1fRfV68tXV46n0YqpORU+/igdvP4+is2LAN05fNnMLR13+xbfl4NZWzX13I62endGMpGvnwr/O557sAfgN8nibcLes72+PtxEeYUMwqh147ljd/V8QpVxRSooFe72OrpzmIs0TbSIxWUBQF5x9G8eUjGc37oBgBSr5fx99uXMm8QgNUlVinlZhIBYsKAU2nweun2qOjKwqpSeByGaAoxMRbibCaUBSF7IuO4Yvb2psYorP5i2VcdvU6ct2gRlpJTrAQoYKv3kdlVQCfoZB1ysH866mhnJDRwYq58SfuGXsmM9bvODSljrqHn+ffzEHhas3pAZp+KGH9zUW4CwyItGBLtWC2g9EQwO/SCDSBekgS2U8MJm2MrQNLkgvwU/2/N7j+wpuYsxnsaSP50/2v8NjUnHYCNI3cB0/iirfL8da4qPTqYIkhOSmWyAEX8vLD0Tx12TP8sqWMah8okU5S4h04T3mEmeM+Z9qdn1FY4qbBAFtcConRDg6/8X3evDwnDO+7Bwks4/HxY3lgOaCmMnw4FKxwodtjSUiIJdISxFdfT32th1qfDo4cJv/tIaZfNJ5BiXsfNtM2z+Hua/7OGz+V02ByMvbWN3jtxnEkh3P58t6k3kfNuwWsu7eCRg8o8VasSRZUNYheq6G5As2B2ZlZDHmgH/EDzD1yIeduVfIel5/zAD+566gqr6YpCPb4NBKinfz+npmcungat31UREmFF91kISYpmdiYIVzz6r34p1/E83lllHt8oDpwpsQTk/QHnvvqYcaGc2+OHqA3tvUOdHa7HYtl92e3V4fESnwqF54dx5uP1qBlpXFpGJfPV+KisTdUUFbV0jgN+vCUV6DHxBLtSMQfHaS+vmVkMuClslzDPDSGmLhE4hUP9a0jDo3VlFWYSHA46b5roMLBl7zElcZbvPTWHBYs38Km1uDHkcrIiROYNOUCzjruELL7xYT1x5p8xl1MX+bn2Tm5lKmZjJlyAzef2N2z0804Y0CracS1U1pgU3UTZdVgTYoi1mnBHG3Bafj4rXTH9ER/nY+yOrDGWsmMt23b10kx0++4wTzyegxj3y7g/a+qWFXYyPZTSRypURwzLo0Jp2cyIbuReS/n89HiWja7miivAasjgsPidvcpqWSMG8aMl+y8/O+NzPuxjrItrXvsKDgPSuS8s3O4fEoaI/p1onqwj+Sy+25g02Pv8c3aIrwaoIPu1/GFc3Ns1Yz9uHRyXrbjerGYss/q8G3007aguNNO7PnpZF6ZTOwQCcw6zkL8wedxz/SlrL9+Fqtdy/nvg9ej6E9w/5+G77ThqpmIuBiaqpZS2Zpy569la7lB1iGxxMXEEWuqo77lQzEa3JQFIT0umtj4BOxNXhpafj6+mnIqgjFExfWUXYN6CPMQpjzyd5K+fZWZH35DXuFmtrbcZU0dzthxk5j6x3MZP2oQmfEdCMwK5/HgLXfxdm45DYaVrDPv4N7Lj5LArDOibMSeN4jhGdEUP1dK5cImmqq3dV4p2dEkXZBB5lQnUZkSmAFgjyHK5KXCVd02T6+puowKUwKOmFgSEu1oXm9zimjQT+3WEgzHETgdUfhig9R7WyoR3Yu7XMOalUiMDPNup/e09fq6Xj1yBuArKmL69eupPO1wZlwWjyNMjSujvoyCDWXUats3whXUyEQGDE5B35LPlpqmtk1uMSnY4jLIybJTkb+BivrtdplXLDhSBzEk3RHS3P5tvSl2znvLxYvjKigp20q1q4ySqjqISMCZlEBigpPElNRuWelq73Rqy4oorvDgI4LY1Ayykh3dnGYTxFtaS2F5AN9uFuRQrCqJmTFkRmhszG/A3dR+hKKYFaLTosnZeaKkoePZ2kh5lUaVq54qt44PhWhnBElJFmJibTiT7MTbddylDWz16DT6DPQgKKpCXEYMAxN3f1YMTaO8pJHK6gB1lfWUeSE6IYKUZBuJKZGkOc2d/u4ZjZUUb3ZRtelDbrn0CXLrwHHmK6yeOYW4cLc8DB1/qQ/flgbqVjbgqzZQkiJwHByFvZ8Ne5pF9szpAqO+hKXvTOeqO98nv8lCTPpwTpj2N+65djI520VoTRUbyN9SjW/76tGkYo/vT06GSnnBJiobdqwDY9IGMSimjg071auKOZLEAUPJjOsJ9VEYbT9yZj+JZ5e/w9lqGWVbq6gsKaHU48MWm0Z6qpNYZyIpKYk49tra0ij69kUefOwVvlqyiWqfldSJt/L841cybqD0oneJ5qdpiw9tYz11+Y1oDQrWjEiiDonEnmbDLrv7bqPXsmV9IRX1fnZoSVkcpAzMIb5hAxtKaneoR9SIRAbkpBEszaeoaqc2VkwGOYOTO5aafwDrnW29A9veRs56fXCGEaB8UwOa00H/OOn27owdf7BbefWMljt0Pz6/DooFi0WVRmuYGQEdvz9IEBOqRcGynye6GH4dTaf52Oo+Hlt3MW/6H7nquaV4cHLGc7m8+aeUnrOAgGGg1+sYfsCqYI5UZYPNfaTXbmHJf5/k7//4D3kVCvaEDA46+TZefe5CcuQaHzo7B2cr/su0luxuw+9DCwQxma3YLB3/gru+uJU/3zmbFYVbaQg6GH7W3dx/x1TGDXJik+vAvvHrBBoMggaYbCpqpCKjZaJbSFuv5zmg0xoBUMykDIwJdykOLKoFmyp9pD2FYlaxhfCXqlhU7Pv8cWu4V3zD+6+9wPOzV+DRwTHmKq6dlNRzAjMARUGNVmRBg/1IjenP6PNu5eWsHJ5/8kVm/VjE2rVlNIQznbWPUyy2Lv2mfeUbWFuwlUDKSKZcdRPXThnPQRmxEpjtDxYVc4gX+RKiU6St12P1/uBMCBFmGnnPX8HNr+exuaSE8jo/jiFTuOfhKxgpo9l9ghqdxpCxF3LrgHGcvWYTWsZoGTXrhVIn3cfbCRcT7DeE7AGZ9Iu396zOFSGE6AMkOBNC7CMfpctyWbK2tHmlp3Ov57brzuWYgxO7cVEbEXbWWNIGxZLcPwfDbMMioy29ji1pGMecNBgsNvY1w1kIIUTXSHAmhNhHkRxz3dM8PqwAW86RHHXoYLL6xWOTLvc+SbXaJG2011JQrdKlIoQQ4dT7FwQRnaCx+s07+MdHq3A3alQW/o91pX5AIWHoaAYmWnHED+bUGx7m6iPDsHGj6L0MH7WeJpTIaBwSlQkRGvpm5tw/nbeWuPD6ati0YhUlDYASy4CRQ+hnd+AYMJZr7r2Z33fn1o9CiB5E2no93YG/WqPohFJeO/84bvnSjd8wMIJA27KzgElBtUQy+vZv+eamg8JYTiGEELuo+4y/HH4p75X70IMtdXgrEygmFdUxmKve/ZWHjgtbKYUQYSVtvZ7uwF+tUXRCAmMvvI5LktZR1ajBznt0qWCNHcL4kzPDUjohhBB7EDmKc6+9HOtKF3VaO/erVqIzjuTc4d1eMiFEjyFtvd5ORs76GL2hmoqaBvy6sa0npZUJFEsksYkJOCRsF0KIHsagsaaSaq8P3WjnbpOCao8mKTFGFmQRog+Ttl7PJmmNQgghhBBCCNED7C04k5n7QgghhBBCCNEDSHAmhBBCCCGEED2ABGdCCCGEEEII0QNIcCaEEEIIIYQQ3cBk2vOKTW3B2d4eKIQQQgghhBAidCQ4E0IIIYQQQohuoCh7Tlzc4d69PVgIIYQQQgghRNd0OK0RJDgTQgghhBBCiFBQFEWCMyGEEEIIIYQIt47EWjs8wmw2h6wwQgghhBBCCNFXqaq618fsEJypqiqjZ0IIIYQQQgixn3VkIGyXSExGz4QQQgghhBBi/zGbzZ1PawSwWCyyrL4QQgghhBBC7CcWi6VDj9slOFMUpcNPFkIIIYQQQgixe6qqdmi+GbQTnAFYrVaZeyaEEEIIIYQQ+8hqtXY4M7HdCMxkMsnomRBCCCGEEELsA4vF0qk1PXY7PGaxWCRAE0IIIYQQQoguUFUVm83WqefsNjgzmUxYrdYO50cKIYQQQgghhGhex8Nms3V6ocU9TixTFAW73S7zz4QQQgghhBCiA0wmEzabrUuDXHuNuiRAE0IIIYQQQoi9a42durp3tCkYDAY78kDDMPD5fAQCgS69kBBCCCGEEEIcqFpTGbsamEEngjNoDtA0TcPv93f5BYUQQgghhBDiQGI2m7HZbPucbdip4AwgGAwSCATQNA3DMPbpxYUQQgghhBCit1IUpW25/P0xDazTwRk0B2jBYBC/308gEJAgTQghhBBCCNFnKIqCqqptG0x3dlXG3elScNaqNUjTdZ1AIICu6+zD4YQQQgghhBCix1JVFbPZjNls3q9BWat9Cs5atQZpwWAQwzDagrTWEbXW+4QQQgghhBCiJ9s+6FIUBZPJhKqqbbdDEZS1vfb+CM6213q47Q8rgZkQQgghhBCit9g++Gq9HaqAbHv/D7+GoLcIrmHeAAAAAElFTkSuQmCC;" vertex="1" parent="1">
          <mxGeometry x="30" y="160" width="520" height="57" as="geometry" />
        </mxCell>
        <mxCell id="KGGsZ-ZlMWvUG5d2Pkvt-4" value="" style="endArrow=classic;html=1;rounded=0;entryX=0.5;entryY=0;entryDx=0;entryDy=0;exitX=0.5;exitY=1;exitDx=0;exitDy=0;" edge="1" parent="1" source="KGGsZ-ZlMWvUG5d2Pkvt-1" target="KGGsZ-ZlMWvUG5d2Pkvt-3">
          <mxGeometry width="50" height="50" relative="1" as="geometry">
            <mxPoint x="500" y="100" as="sourcePoint" />
            <mxPoint x="420" y="100" as="targetPoint" />
          </mxGeometry>
        </mxCell>
      </root>
    </mxGraphModel>
  </diagram>
</mxfile>
